<?xml version="1.0" encoding="UTF-8" standalone="no"?>
<!-- Created with Inkscape (http://www.inkscape.org/) -->

<svg
   width="245.6693"
   height="245.6693"
   viewBox="0 0 65.000001 65.000001"
   version="1.1"
   id="svg1"
   xmlns="http://www.w3.org/2000/svg"
   xmlns:svg="http://www.w3.org/2000/svg">
  <defs
     id="defs1">
    <clipPath
       id="clipPath65193-30-4-9-3-5-9-4-6-8-4-4"
       clipPathUnits="userSpaceOnUse">
      <path
         id="path65191-3-2-68-7-9-6-2-3-0-5-52"
         d="M 0,1366 H 1366 V 0 H 0 Z" />
    </clipPath>
  </defs>
  <g
     id="layer1"
     transform="translate(4.4979224,-64.822906)">
    <g
       id="text713-3-35-4-30"
       style="font-size:2.32332px;line-height:0%;letter-spacing:0px;word-spacing:0px;stroke-width:0.19361px"
       aria-label="WebThings Gateway&#10;Snap">
      <path
         style="font-weight:600;font-size:6.35px;line-height:1.25;font-family:'Zilla Slab';-inkscape-font-specification:'Zilla Slab Semi-Bold';text-align:center;text-anchor:middle"
         d="m 5.783494,71.898724 h -0.33655 l -1.12395,3.52425 h -0.5207 l -1.00965,-2.9083 h -0.03175 l -0.9779,2.9083 H 1.2559441 l -1.19380003,-3.52425 h -0.35559999 v -0.60325 H 1.2749941 v 0.60325 H 0.81779406 l 0.71119994,2.3622 h 0.03175 l 0.81915,-2.3622 h -0.36195 v -0.60325 h 1.5621 v 0.60325 h -0.33655 l 0.81915,2.39395 h 0.03175 l 0.6477,-2.39395 h -0.508 v -0.60325 h 1.5494 z m 2.5717297,2.6543 q -0.0381,0.37465 -0.3683,0.65405 -0.3302,0.2794 -0.90805,0.2794 -0.6223,0 -1.02235,-0.36195 -0.40005,-0.3683 -0.40005,-1.0795 0,-0.65405 0.36195,-1.0922 0.3683,-0.43815 1.02235,-0.43815 0.59055,0 0.93345,0.3556 0.34925,0.34925 0.3556,0.889 0,0.1778 -0.0381,0.381 h -1.92405 q 0.05715,0.8001 0.762,0.8001 0.3302,0 0.4699,-0.15875 0.14605,-0.15875 0.1905,-0.33655 z m -0.7239,-0.83185 q 0.0254,-0.254 -0.12065,-0.47625 -0.1397,-0.2286 -0.47625,-0.2286 -0.3048,0 -0.46355,0.2032 -0.15875,0.2032 -0.19685,0.50165 z m 4.1719413,0.20955 q 0,0.60325 -0.3175,1.0795 -0.3175,0.47625 -0.9779,0.47625 -0.6730996,0 -0.9461496,-0.508 -0.0127,0.0762 -0.03175,0.22225 -0.01905,0.14605 -0.03175,0.22225 h -0.6731 q 0.0381,-0.20955 0.06985,-0.42545 0.03175,-0.22225 0.03175,-0.4318 v -2.99085 h -0.42545 v -0.5207 h 1.09855 v 2.0828 q 0.127,-0.254 0.3556,-0.43815 0.2349496,-0.18415 0.6286496,-0.18415 0.53975,0 0.8763,0.37465 0.3429,0.3683 0.3429,1.0414 z m -0.70485,0.05715 q 0,-0.45085 -0.2032,-0.6858 -0.2032,-0.2413 -0.5207,-0.2413 -0.36195,0 -0.5651496,0.2667 -0.2032,0.2667 -0.20955,0.57785 v 0.2032 q 0,0.34925 0.2032,0.5969 0.2095496,0.2413 0.5460996,0.2413 0.3556,0 0.55245,-0.26035 0.19685,-0.26035 0.19685,-0.6985 z m 4.521188,-1.3462 -0.6096,0.0508 -0.127,-0.79375 h -0.80645 v 2.921 h 0.69215 v 0.60325 h -2.06375 v -0.60325 h 0.66675 v -2.921 h -0.8128 l -0.127,0.79375 -0.60325,-0.0508 0.127,-1.3462 h 3.53695 z m 3.70205,2.7813 h -1.53035 v -0.5207 h 0.42545 v -1.1176 q 0,-0.4064 -0.1524,-0.5715 -0.1524,-0.17145 -0.41275,-0.17145 -0.31115,0 -0.4953,0.2032 -0.18415,0.2032 -0.19685,0.4953 v 1.16205 h 0.4191 v 0.5207 h -1.524 v -0.5207 h 0.42545 v -3.3274 h -0.42545 v -0.5207 h 1.1049 v 1.98755 q 0.2921,-0.52705 0.94615,-0.52705 0.41275,0 0.6985,0.24765 0.2921,0.24765 0.2921,0.7747 v 1.36525 h 0.42545 z m 0.66675,-3.4417 v -0.7493 h 0.69215 v 0.7493 z m 1.13665,3.4417 h -1.524 v -0.5207 h 0.42545 v -1.8034 h -0.45085 v -0.52705 h 1.12395 v 2.33045 h 0.42545 z m 3.771898,0 h -1.524 v -0.5207 h 0.4191 v -1.1176 q 0,-0.4064 -0.14605,-0.5715 -0.14605,-0.17145 -0.4064,-0.17145 -0.32385,0 -0.51435,0.20955 -0.18415,0.20955 -0.1905,0.51435 v 1.13665 h 0.42545 v 0.5207 h -1.53035 v -0.5207 h 0.42545 v -1.8034 h -0.4445 v -0.52705 h 1.12395 v 0.46355 q 0.29845,-0.5207 0.94615,-0.5207 0.4064,0 0.6985,0.24765 0.2921,0.24765 0.2921,0.7747 v 1.36525 h 0.42545 z m 3.53694,-2.3241 h -0.41275 v 2.21615 q 0,0.67945 -0.381,1.09855 -0.37465,0.4191 -1.12395,0.4191 -0.4445,0 -0.83185,-0.1905 -0.38735,-0.1905 -0.5461,-0.65405 l 0.52705,-0.28575 q 0.2667,0.5842 0.8636,0.5842 0.3556,0 0.5842,-0.254 0.2286,-0.254 0.2286,-0.7239 v -0.42545 q -0.12065,0.2286 -0.34925,0.3937 -0.22225,0.15875 -0.61595,0.15875 -0.50165,0 -0.86995,-0.34925 -0.36195,-0.3556 -0.36195,-1.0287 0,-0.6096 0.32385,-1.07315 0.3302,-0.4699 0.9525,-0.4699 0.6477,0 0.92075,0.50165 v -0.4445 h 1.0922 z m -1.0922,0.9652 v -0.2286 q 0,-0.3556 -0.2032,-0.56515 -0.2032,-0.20955 -0.508,-0.20955 -0.3556,0 -0.5461,0.26035 -0.1905,0.254 -0.1905,0.69215 0,0.45085 0.1905,0.66675 0.1905,0.20955 0.4826,0.20955 0.36195,0 0.56515,-0.254 0.20955,-0.254 0.20955,-0.5715 z m 3.854448,0.508 q 0,0.4445 -0.3683,0.67945 -0.36195,0.23495 -0.9271,0.23495 -0.3048,0 -0.61595,-0.06985 -0.3048,-0.06985 -0.55245,-0.20955 l 0.1016,-0.7366 0.5334,0.0508 -0.0064,0.3683 q 0.12065,0.0508 0.254,0.06985 0.1397,0.01905 0.24765,0.01905 0.26035,0 0.45085,-0.0889 0.19685,-0.09525 0.19685,-0.2794 0,-0.1778 -0.1778,-0.254 -0.17145,-0.0762 -0.4318,-0.1143 -0.26035,-0.04445 -0.5207,-0.1143 -0.26035,-0.0762 -0.43815,-0.2413 -0.17145,-0.17145 -0.17145,-0.508 0,-0.4953 0.37465,-0.67945 0.381,-0.18415 0.8001,-0.18415 0.55245,0 1.0414,0.26035 l 0.06985,0.70485 -0.5334,0.0635 -0.05715,-0.42545 q -0.24765,-0.09525 -0.50165,-0.09525 -0.19685,0 -0.33655,0.08255 -0.13335,0.0762 -0.13335,0.24765 0,0.1778 0.17145,0.24765 0.17145,0.06985 0.42545,0.1143 0.254,0.0381 0.508,0.1143 0.254,0.06985 0.42545,0.2413 0.17145,0.1651 0.17145,0.50165 z"
         id="path4" />
      <path
         style="font-size:6.35px;line-height:1.25;font-family:'Zilla Slab';-inkscape-font-specification:'Zilla Slab Bold';text-align:center;text-anchor:middle"
         d="m 36.790466,73.708474 h -0.32385 v 1.7145 h -0.3556 l -0.05715,-0.5715 q -0.18415,0.27305 -0.52705,0.4572 -0.33655,0.1778 -0.79375,0.1778 -0.8509,0 -1.37795,-0.6096 -0.52705,-0.6096 -0.52705,-1.4986 0,-0.5969 0.254,-1.0795 0.26035,-0.48895 0.7112,-0.7747 0.4572,-0.2921 1.04775,-0.2921 0.4953,0 0.8636,0.1397 0.37465,0.13335 0.6096,0.3429 l 0.1143,0.7747 -0.3937,0.04445 -0.127,-0.5842 q -0.17145,-0.1143 -0.4191,-0.2032 -0.2413,-0.09525 -0.6223,-0.09525 -0.69215,0 -1.1176,0.47625 -0.42545,0.47625 -0.42545,1.2319 0,0.76835 0.4064,1.23825 0.4064,0.4699 1.08585,0.4699 0.56515,0 0.8763,-0.3048 0.31115,-0.31115 0.31115,-0.6858 v -0.3683 h -0.98425 v -0.41275 h 1.77165 z m 0.685802,-0.89535 q 0.22225,-0.14605 0.4699,-0.20955 0.24765,-0.0635 0.52705,-0.0635 1.00965,0 1.00965,0.94615 v 1.3462 q 0,0.3048 0.2413,0.3048 0.10795,0 0.1905,-0.0381 l 0.0063,0.2921 q -0.17145,0.09525 -0.3683,0.09525 -0.50165,0 -0.51435,-0.5715 v -0.0127 q -0.13335,0.2286 -0.381,0.4064 -0.2413,0.1778 -0.5842,0.1778 -0.2794,0 -0.5715,-0.17145 -0.28575,-0.17145 -0.28575,-0.6223 0,-0.5334 0.4191,-0.6985 0.42545,-0.17145 0.9017,-0.17145 0.127,0 0.254,0.0063 0.13335,0.0064 0.24765,0.01905 v -0.254 q 0,-0.3048 -0.13335,-0.4953 -0.127,-0.1905 -0.508,-0.1905 -0.31115,0 -0.5461,0.1143 l -0.10795,0.48895 -0.3683,-0.04445 z m 1.5621,1.5494 v -0.2159 q -0.12065,-0.0063 -0.254,-0.01905 -0.13335,-0.0127 -0.27305,-0.0127 -0.3175,0 -0.57785,0.1016 -0.254,0.09525 -0.254,0.42545 0,0.27305 0.17145,0.37465 0.17145,0.1016 0.3556,0.1016 0.2921,0 0.5461,-0.2032 0.26035,-0.2032 0.28575,-0.55245 z m 3.314697,0.29845 q -0.1143,0.8255 -0.89535,0.8255 -0.42545,0 -0.65405,-0.2413 -0.22225,-0.2413 -0.22225,-0.65405 v -1.6383 h -0.4572 v -0.3556 h 0.4572 v -0.90805 h 0.4445 v 0.90805 h 1.1049 v 0.3556 h -1.1049 v 1.58115 q 0,0.254 0.10795,0.41275 0.1143,0.1524 0.3683,0.1524 0.1651,0 0.3048,-0.1016 0.14605,-0.1016 0.20955,-0.4445 z m 2.793989,-0.0508 q -0.05715,0.36195 -0.36195,0.6223 -0.3048,0.254 -0.8255,0.254 -0.5969,0 -0.9652,-0.37465 -0.3683,-0.37465 -0.3683,-1.06045 0,-0.6604 0.34925,-1.08585 0.34925,-0.42545 0.94615,-0.42545 0.5842,0 0.889,0.3683 0.3048,0.3683 0.31115,0.86995 0,0.1651 -0.0381,0.33655 h -1.98755 q 0.0381,0.9906 0.89535,0.9906 0.33655,0 0.52705,-0.15875 0.1905,-0.15875 0.254,-0.4191 z m -0.4953,-0.8255 q 0.03175,-0.3175 -0.1524,-0.5969 -0.1778,-0.2794 -0.59055,-0.2794 -0.3937,0 -0.57785,0.26035 -0.18415,0.26035 -0.2286,0.61595 z m 5.460991,-0.8255 h -0.32385 l -0.83185,2.4638 h -0.3429 l -0.8636,-2.159 h -0.03175 l -0.84455,2.159 h -0.3302 l -0.8636,-2.4638 h -0.31115 v -0.36195 h 1.3335 v 0.36195 h -0.53975 l 0.59055,1.78435 h 0.03175 l 0.8382,-2.1463 h 0.29845 l 0.88265,2.1463 h 0.03175 l 0.5207,-1.78435 h -0.51435 v -0.36195 h 1.27 z m 0.577844,-0.14605 q 0.22225,-0.14605 0.4699,-0.20955 0.24765,-0.0635 0.52705,-0.0635 1.00965,0 1.00965,0.94615 v 1.3462 q 0,0.3048 0.2413,0.3048 0.10795,0 0.1905,-0.0381 l 0.0064,0.2921 q -0.17145,0.09525 -0.3683,0.09525 -0.50165,0 -0.51435,-0.5715 v -0.0127 q -0.13335,0.2286 -0.381,0.4064 -0.2413,0.1778 -0.5842,0.1778 -0.2794,0 -0.5715,-0.17145 -0.28575,-0.17145 -0.28575,-0.6223 0,-0.5334 0.4191,-0.6985 0.42545,-0.17145 0.9017,-0.17145 0.127,0 0.254,0.0063 0.13335,0.0064 0.24765,0.01905 v -0.254 q 0,-0.3048 -0.13335,-0.4953 -0.127,-0.1905 -0.508,-0.1905 -0.31115,0 -0.5461,0.1143 l -0.10795,0.48895 -0.3683,-0.04445 z m 1.5621,1.5494 v -0.2159 q -0.12065,-0.0063 -0.254,-0.01905 -0.13335,-0.0127 -0.27305,-0.0127 -0.3175,0 -0.57785,0.1016 -0.254,0.09525 -0.254,0.42545 0,0.27305 0.17145,0.37465 0.17145,0.1016 0.3556,0.1016 0.2921,0 0.5461,-0.2032 0.26035,-0.2032 0.28575,-0.55245 z m 4.044936,-1.40335 h -0.33655 l -0.99695,2.4638 -0.381,0.9906 h 0.4826 v 0.36195 h -1.4351 v -0.36195 h 0.52705 l 0.3683,-0.99695 -1.0287,-2.45745 h -0.33655 v -0.36195 h 1.3081 v 0.36195 h -0.4953 l 0.79375,1.89865 h 0.0381 l 0.70485,-1.89865 h -0.4572 v -0.36195 h 1.2446 z"
         id="path5" />
      <path
         style="font-size:4.23334px;line-height:1.25;font-family:'Open Sans';-inkscape-font-specification:'Open Sans Bold';text-align:center;text-anchor:middle"
         d="m 25.210006,80.516134 q 0,0.398942 -0.289388,0.622185 -0.289389,0.223243 -0.785483,0.223243 -0.537436,0 -0.826824,-0.138494 v -0.338997 q 0.186035,0.07855 0.405144,0.124023 0.219108,0.04548 0.434082,0.04548 0.351401,0 0.529168,-0.132292 0.177767,-0.134359 0.177767,-0.372071 0,-0.157097 -0.06408,-0.256316 -0.06201,-0.101286 -0.21084,-0.186035 -0.146761,-0.08475 -0.448552,-0.192237 -0.421681,-0.150895 -0.603582,-0.357601 -0.179834,-0.206706 -0.179834,-0.539503 0,-0.349333 0.262517,-0.556039 0.262516,-0.206706 0.694532,-0.206706 0.450619,0 0.828891,0.165365 l -0.109554,0.305924 q -0.374138,-0.157096 -0.727605,-0.157096 -0.279054,0 -0.43615,0.119889 -0.157097,0.11989 -0.157097,0.332797 0,0.157097 0.05788,0.258383 0.05788,0.09922 0.194304,0.183968 0.138493,0.08268 0.42168,0.183968 0.475424,0.169499 0.653191,0.363803 0.179834,0.194304 0.179834,0.504363 z m 2.11667,0.804086 v -1.465546 q 0,-0.276986 -0.12609,-0.413412 -0.126091,-0.136426 -0.394809,-0.136426 -0.355534,0 -0.520899,0.192237 -0.165365,0.192237 -0.165365,0.634588 v 1.188559 h -0.343132 v -2.265498 h 0.279053 l 0.05581,0.310059 h 0.01654 q 0.10542,-0.167432 0.29559,-0.258382 0.190169,-0.09302 0.423747,-0.09302 0.409278,0 0.615984,0.198438 0.206706,0.19637 0.206706,0.630453 v 1.477948 z m 2.441199,0 -0.06821,-0.322461 h -0.01654 q -0.169499,0.212907 -0.338998,0.289388 -0.167432,0.07442 -0.419613,0.07442 -0.336931,0 -0.529167,-0.173634 -0.19017,-0.173633 -0.19017,-0.494027 0,-0.686264 1.097609,-0.719337 l 0.384473,-0.0124 v -0.140561 q 0,-0.26665 -0.115755,-0.392741 -0.113688,-0.128158 -0.36587,-0.128158 -0.283187,0 -0.640789,0.173633 l -0.10542,-0.262516 q 0.167432,-0.09095 0.36587,-0.142628 0.200505,-0.05168 0.40101,-0.05168 0.405144,0 0.599447,0.179834 0.196371,0.179834 0.196371,0.57671 v 1.546161 z m -0.775148,-0.241846 q 0.320394,0 0.502296,-0.1757 0.183968,-0.1757 0.183968,-0.49196 v -0.204639 l -0.343132,0.01447 q -0.409278,0.01447 -0.591179,0.128158 -0.179835,0.111621 -0.179835,0.349333 0,0.186036 0.111622,0.283187 0.113688,0.09715 0.31626,0.09715 z m 2.790531,0.283188 q -0.221175,0 -0.405144,-0.08062 -0.181901,-0.08268 -0.305925,-0.252181 h -0.0248 q 0.0248,0.198438 0.0248,0.376205 v 0.932244 h -0.343132 v -3.282492 h 0.279054 l 0.04754,0.310059 h 0.01654 q 0.132292,-0.186035 0.307993,-0.268718 0.1757,-0.08268 0.403076,-0.08268 0.450619,0 0.694533,0.307992 0.24598,0.307992 0.24598,0.864031 0,0.558106 -0.250115,0.868166 -0.248047,0.307992 -0.690398,0.307992 z m -0.04961,-2.056726 q -0.347266,0 -0.502296,0.192237 -0.155029,0.192237 -0.159164,0.61185 v 0.07648 q 0,0.477491 0.159164,0.684197 0.159164,0.204639 0.510564,0.204639 0.293523,0 0.458887,-0.237712 0.167432,-0.237712 0.167432,-0.655258 0,-0.423747 -0.167432,-0.649057 -0.165364,-0.227377 -0.467155,-0.227377 z"
         id="path6" />
    </g>
    <g
       id="g22-38-7"
       transform="matrix(1.2284226,0,0,1.2284226,8.3473167,87.746463)">
      <path
         d="m 18.105,8.876 6.173,2.667 -6.173,6 z M 6.318,29 17.21,18.413 13.887,15.2 Z M 2,3 17.582,18.052 V 8.474 Z"
         style="fill:#82bfa1;fill-rule:evenodd"
         id="path1-5-0-4" />
      <path
         d="M 27.436,8.473 H 18.464 L 30,13.457 Z"
         style="fill:#fa6340;fill-rule:evenodd"
         id="path2-6-77-4" />
    </g>
  </g>
</svg>
