<?xml version="1.0" encoding="UTF-8" standalone="no"?>
<!-- Created with Inkscape (http://www.inkscape.org/) -->

<svg
   width="245.6693"
   height="245.6693"
   viewBox="0 0 65.000001 65.000001"
   version="1.1"
   id="svg1"
   xmlns="http://www.w3.org/2000/svg"
   xmlns:svg="http://www.w3.org/2000/svg">
  <defs
     id="defs1">
    <clipPath
       id="clipPath65193-30-4-9-3-5-9-4-6-8-4-4"
       clipPathUnits="userSpaceOnUse">
      <path
         id="path65191-3-2-68-7-9-6-2-3-0-5-52"
         d="M 0,1366 H 1366 V 0 H 0 Z" />
    </clipPath>
  </defs>
  <g
     id="layer1"
     transform="translate(4.4979224,-64.822906)">
    <g
       id="text758-6-5-8-0"
       style="font-size:2.32332px;line-height:0%;letter-spacing:0px;word-spacing:0px;stroke-width:0.19361px"
       aria-label="WebThings Gateway&#10;Docker">
      <path
         style="font-weight:600;font-size:6.35px;line-height:1.25;font-family:'Zilla Slab';-inkscape-font-specification:'Zilla Slab Semi-Bold';text-align:center;text-anchor:middle"
         d="m 5.7580974,71.898724 h -0.33655 l -1.12395,3.52425 h -0.5207 l -1.00965,-2.9083 h -0.03175 l -0.9778999,2.9083 h -0.52705 l -1.19380001,-3.52425 h -0.3556 v -0.60325 H 1.2495975 v 0.60325 H 0.79239747 l 0.71120003,2.3622 h 0.03175 l 0.81915,-2.3622 h -0.36195 v -0.60325 h 1.5620999 v 0.60325 h -0.33655 l 0.81915,2.39395 h 0.03175 l 0.6477,-2.39395 h -0.508 v -0.60325 h 1.5494 z m 2.5717297,2.6543 q -0.0381,0.37465 -0.3683,0.65405 -0.3302,0.2794 -0.90805,0.2794 -0.6223,0 -1.02235,-0.36195 -0.40005,-0.3683 -0.40005,-1.0795 0,-0.65405 0.36195,-1.0922 0.3683,-0.43815 1.02235,-0.43815 0.59055,0 0.93345,0.3556 0.34925,0.34925 0.3556,0.889 0,0.1778 -0.0381,0.381 h -1.92405 q 0.05715,0.8001 0.762,0.8001 0.3302,0 0.4699,-0.15875 0.14605,-0.15875 0.1905,-0.33655 z m -0.7239,-0.83185 q 0.0254,-0.254 -0.12065,-0.47625 -0.1397,-0.2286 -0.47625,-0.2286 -0.3048,0 -0.46355,0.2032 -0.15875,0.2032 -0.19685,0.50165 z m 4.1719419,0.20955 q 0,0.60325 -0.3175,1.0795 -0.3175,0.47625 -0.9779,0.47625 -0.6731002,0 -0.9461502,-0.508 -0.0127,0.0762 -0.03175,0.22225 -0.01905,0.14605 -0.03175,0.22225 h -0.6731 q 0.0381,-0.20955 0.06985,-0.42545 0.03175,-0.22225 0.03175,-0.4318 v -2.99085 h -0.42545 v -0.5207 h 1.09855 v 2.0828 q 0.127,-0.254 0.3556,-0.43815 0.2349502,-0.18415 0.6286502,-0.18415 0.53975,0 0.8763,0.37465 0.3429,0.3683 0.3429,1.0414 z m -0.70485,0.05715 q 0,-0.45085 -0.2032,-0.6858 -0.2032,-0.2413 -0.5207,-0.2413 -0.3619502,0 -0.5651502,0.2667 -0.2032,0.2667 -0.20955,0.57785 v 0.2032 q 0,0.34925 0.2032,0.5969 0.20955,0.2413 0.5461002,0.2413 0.3556,0 0.55245,-0.26035 0.19685,-0.26035 0.19685,-0.6985 z m 4.521188,-1.3462 -0.6096,0.0508 -0.127,-0.79375 h -0.80645 v 2.921 h 0.69215 v 0.60325 h -2.06375 v -0.60325 h 0.66675 v -2.921 h -0.8128 l -0.127,0.79375 -0.60325,-0.0508 0.127,-1.3462 h 3.53695 z m 3.702049,2.7813 h -1.53035 v -0.5207 h 0.42545 v -1.1176 q 0,-0.4064 -0.1524,-0.5715 -0.1524,-0.17145 -0.41275,-0.17145 -0.31115,0 -0.4953,0.2032 -0.18415,0.2032 -0.19685,0.4953 v 1.16205 h 0.4191 v 0.5207 h -1.524 v -0.5207 h 0.42545 v -3.3274 h -0.42545 v -0.5207 h 1.1049 v 1.98755 q 0.2921,-0.52705 0.94615,-0.52705 0.41275,0 0.6985,0.24765 0.2921,0.24765 0.2921,0.7747 v 1.36525 h 0.42545 z m 0.66675,-3.4417 v -0.7493 h 0.69215 v 0.7493 z m 1.13665,3.4417 h -1.524 v -0.5207 h 0.42545 v -1.8034 h -0.45085 v -0.52705 h 1.12395 v 2.33045 h 0.42545 z m 3.771898,0 h -1.524 v -0.5207 h 0.4191 v -1.1176 q 0,-0.4064 -0.14605,-0.5715 -0.14605,-0.17145 -0.4064,-0.17145 -0.32385,0 -0.51435,0.20955 -0.18415,0.20955 -0.1905,0.51435 v 1.13665 h 0.42545 v 0.5207 h -1.53035 v -0.5207 h 0.42545 v -1.8034 h -0.4445 v -0.52705 h 1.12395 v 0.46355 q 0.29845,-0.5207 0.94615,-0.5207 0.4064,0 0.6985,0.24765 0.2921,0.24765 0.2921,0.7747 v 1.36525 h 0.42545 z m 3.536941,-2.3241 h -0.41275 v 2.21615 q 0,0.67945 -0.381,1.09855 -0.37465,0.4191 -1.12395,0.4191 -0.4445,0 -0.83185,-0.1905 -0.38735,-0.1905 -0.5461,-0.65405 l 0.52705,-0.28575 q 0.2667,0.5842 0.8636,0.5842 0.3556,0 0.5842,-0.254 0.2286,-0.254 0.2286,-0.7239 v -0.42545 q -0.12065,0.2286 -0.34925,0.3937 -0.22225,0.15875 -0.61595,0.15875 -0.50165,0 -0.86995,-0.34925 -0.36195,-0.3556 -0.36195,-1.0287 0,-0.6096 0.32385,-1.07315 0.3302,-0.4699 0.9525,-0.4699 0.6477,0 0.92075,0.50165 v -0.4445 h 1.0922 z m -1.0922,0.9652 v -0.2286 q 0,-0.3556 -0.2032,-0.56515 -0.2032,-0.20955 -0.508,-0.20955 -0.3556,0 -0.5461,0.26035 -0.1905,0.254 -0.1905,0.69215 0,0.45085 0.1905,0.66675 0.1905,0.20955 0.4826,0.20955 0.36195,0 0.56515,-0.254 0.20955,-0.254 0.20955,-0.5715 z"
         id="path1" />
      <path
         style="font-weight:bold;font-size:6.35px;line-height:1.25;font-family:'Zilla Slab';-inkscape-font-specification:'Zilla Slab Bold';text-align:center;text-anchor:middle"
         d="m 31.259643,74.546674 q 0,0.47625 -0.381,0.7112 -0.37465,0.2286 -0.9779,0.2286 -0.31115,0 -0.62865,-0.0635 -0.31115,-0.06985 -0.5969,-0.2159 l 0.1143,-0.8001 0.635,0.06985 v 0.3556 q 0.1143,0.0381 0.2413,0.0508 0.127,0.0063 0.1905,0.0063 0.23495,0 0.4064,-0.0762 0.17145,-0.0762 0.17145,-0.2286 0,-0.18415 -0.26035,-0.2413 -0.26035,-0.05715 -0.60325,-0.1143 -0.3429,-0.05715 -0.60325,-0.23495 -0.26035,-0.1778 -0.26035,-0.60325 0,-0.52705 0.4064,-0.70485 0.41275,-0.18415 0.8509,-0.18415 0.5715,0 1.07315,0.26035 l 0.06985,0.73025 -0.635,0.06985 -0.0508,-0.40005 q -0.20955,-0.06985 -0.45085,-0.06985 -0.15875,0 -0.27305,0.06985 -0.10795,0.0635 -0.10795,0.2032 0,0.18415 0.24765,0.24765 0.254,0.05715 0.5842,0.1143 0.33655,0.05715 0.5842,0.23495 0.254,0.17145 0.254,0.5842 z"
         id="path2" />
      <path
         style="font-size:6.35px;line-height:1.25;font-family:'Zilla Slab';-inkscape-font-specification:'Zilla Slab Bold';text-align:center;text-anchor:middle"
         d="m 36.815878,73.708474 h -0.32385 v 1.7145 h -0.3556 l -0.05715,-0.5715 q -0.18415,0.27305 -0.52705,0.4572 -0.33655,0.1778 -0.79375,0.1778 -0.8509,0 -1.37795,-0.6096 -0.52705,-0.6096 -0.52705,-1.4986 0,-0.5969 0.254,-1.0795 0.26035,-0.48895 0.7112,-0.7747 0.4572,-0.2921 1.04775,-0.2921 0.4953,0 0.8636,0.1397 0.37465,0.13335 0.6096,0.3429 l 0.1143,0.7747 -0.3937,0.04445 -0.127,-0.5842 q -0.17145,-0.1143 -0.4191,-0.2032 -0.2413,-0.09525 -0.6223,-0.09525 -0.69215,0 -1.1176,0.47625 -0.42545,0.47625 -0.42545,1.2319 0,0.76835 0.4064,1.23825 0.4064,0.4699 1.08585,0.4699 0.56515,0 0.8763,-0.3048 0.31115,-0.31115 0.31115,-0.6858 v -0.3683 h -0.98425 v -0.41275 h 1.77165 z m 0.685801,-0.89535 q 0.22225,-0.14605 0.4699,-0.20955 0.24765,-0.0635 0.52705,-0.0635 1.00965,0 1.00965,0.94615 v 1.3462 q 0,0.3048 0.2413,0.3048 0.10795,0 0.1905,-0.0381 l 0.0064,0.2921 q -0.17145,0.09525 -0.3683,0.09525 -0.50165,0 -0.51435,-0.5715 v -0.0127 q -0.13335,0.2286 -0.381,0.4064 -0.2413,0.1778 -0.5842,0.1778 -0.2794,0 -0.5715,-0.17145 -0.28575,-0.17145 -0.28575,-0.6223 0,-0.5334 0.4191,-0.6985 0.42545,-0.17145 0.9017,-0.17145 0.127,0 0.254,0.0063 0.13335,0.0064 0.24765,0.01905 v -0.254 q 0,-0.3048 -0.13335,-0.4953 -0.127,-0.1905 -0.508,-0.1905 -0.31115,0 -0.5461,0.1143 l -0.10795,0.48895 -0.3683,-0.04445 z m 1.5621,1.5494 v -0.2159 q -0.12065,-0.0063 -0.254,-0.01905 -0.13335,-0.0127 -0.27305,-0.0127 -0.3175,0 -0.57785,0.1016 -0.254,0.09525 -0.254,0.42545 0,0.27305 0.17145,0.37465 0.17145,0.1016 0.3556,0.1016 0.2921,0 0.5461,-0.2032 0.26035,-0.2032 0.28575,-0.55245 z m 3.314698,0.29845 q -0.1143,0.8255 -0.89535,0.8255 -0.42545,0 -0.65405,-0.2413 -0.22225,-0.2413 -0.22225,-0.65405 v -1.6383 h -0.4572 v -0.3556 h 0.4572 v -0.90805 h 0.4445 v 0.90805 h 1.1049 v 0.3556 h -1.1049 v 1.58115 q 0,0.254 0.10795,0.41275 0.1143,0.1524 0.3683,0.1524 0.1651,0 0.3048,-0.1016 0.14605,-0.1016 0.20955,-0.4445 z m 2.793992,-0.0508 q -0.05715,0.36195 -0.36195,0.6223 -0.3048,0.254 -0.8255,0.254 -0.5969,0 -0.9652,-0.37465 -0.3683,-0.37465 -0.3683,-1.06045 0,-0.6604 0.34925,-1.08585 0.34925,-0.42545 0.94615,-0.42545 0.5842,0 0.889,0.3683 0.3048,0.3683 0.31115,0.86995 0,0.1651 -0.0381,0.33655 h -1.98755 q 0.0381,0.9906 0.89535,0.9906 0.33655,0 0.52705,-0.15875 0.1905,-0.15875 0.254,-0.4191 z m -0.4953,-0.8255 q 0.03175,-0.3175 -0.1524,-0.5969 -0.1778,-0.2794 -0.59055,-0.2794 -0.3937,0 -0.57785,0.26035 -0.18415,0.26035 -0.2286,0.61595 z m 5.460988,-0.8255 h -0.32385 l -0.83185,2.4638 h -0.3429 l -0.8636,-2.159 h -0.03175 l -0.84455,2.159 h -0.3302 l -0.8636,-2.4638 h -0.31115 v -0.36195 h 1.3335 v 0.36195 h -0.53975 l 0.59055,1.78435 h 0.03175 l 0.8382,-2.1463 h 0.29845 l 0.88265,2.1463 h 0.03175 l 0.5207,-1.78435 h -0.51435 v -0.36195 h 1.27 z m 0.577844,-0.14605 q 0.22225,-0.14605 0.4699,-0.20955 0.24765,-0.0635 0.52705,-0.0635 1.00965,0 1.00965,0.94615 v 1.3462 q 0,0.3048 0.2413,0.3048 0.10795,0 0.1905,-0.0381 l 0.0063,0.2921 q -0.17145,0.09525 -0.3683,0.09525 -0.50165,0 -0.51435,-0.5715 v -0.0127 q -0.13335,0.2286 -0.381,0.4064 -0.2413,0.1778 -0.5842,0.1778 -0.2794,0 -0.5715,-0.17145 -0.28575,-0.17145 -0.28575,-0.6223 0,-0.5334 0.4191,-0.6985 0.42545,-0.17145 0.9017,-0.17145 0.127,0 0.254,0.0063 0.13335,0.0064 0.24765,0.01905 v -0.254 q 0,-0.3048 -0.13335,-0.4953 -0.127,-0.1905 -0.508,-0.1905 -0.31115,0 -0.5461,0.1143 l -0.10795,0.48895 -0.3683,-0.04445 z m 1.5621,1.5494 v -0.2159 q -0.12065,-0.0063 -0.254,-0.01905 -0.13335,-0.0127 -0.27305,-0.0127 -0.3175,0 -0.57785,0.1016 -0.254,0.09525 -0.254,0.42545 0,0.27305 0.17145,0.37465 0.17145,0.1016 0.3556,0.1016 0.2921,0 0.5461,-0.2032 0.26035,-0.2032 0.28575,-0.55245 z m 4.044935,-1.40335 h -0.33655 l -0.99695,2.4638 -0.381,0.9906 h 0.4826 v 0.36195 h -1.4351 v -0.36195 h 0.52705 l 0.3683,-0.99695 -1.0287,-2.45745 h -0.33655 v -0.36195 h 1.3081 v 0.36195 h -0.4953 l 0.79375,1.89865 h 0.0381 l 0.70485,-1.89865 h -0.4572 v -0.36195 h 1.2446 z"
         id="path3" />
      <path
         style="font-size:4.23334px;line-height:1.25;font-family:'Open Sans';-inkscape-font-specification:'Open Sans Bold';text-align:center;text-anchor:middle"
         d="m 23.860224,79.78026 q 0,0.748276 -0.407211,1.145152 -0.405144,0.394808 -1.16789,0.394808 h -0.837159 v -3.022042 h 0.926043 q 0.704868,0 1.095542,0.390674 0.390675,0.390675 0.390675,1.091408 z m -0.372071,0.0124 q 0,-0.59118 -0.297657,-0.890903 -0.29559,-0.299724 -0.880568,-0.299724 h -0.510564 v 2.414326 h 0.427882 q 0.628386,0 0.944646,-0.307992 0.316261,-0.310059 0.316261,-0.915707 z m 2.949695,0.392741 q 0,0.553972 -0.279053,0.866098 -0.279053,0.31006 -0.771014,0.31006 -0.303858,0 -0.539503,-0.142628 -0.235644,-0.142627 -0.363802,-0.409278 -0.128158,-0.26665 -0.128158,-0.624252 0,-0.553972 0.276986,-0.861964 0.276986,-0.310059 0.768947,-0.310059 0.475424,0 0.754477,0.31626 0.28112,0.31626 0.28112,0.855763 z m -1.725995,0 q 0,0.434083 0.173633,0.661459 0.173633,0.227377 0.510564,0.227377 0.33693,0 0.510563,-0.225309 0.175701,-0.227377 0.175701,-0.663527 0,-0.432016 -0.175701,-0.655258 -0.173633,-0.22531 -0.514698,-0.22531 -0.33693,0 -0.508496,0.221176 -0.171566,0.221175 -0.171566,0.659392 z m 3.232882,1.176158 q -0.49196,0 -0.762745,-0.301791 -0.268718,-0.303858 -0.268718,-0.85783 0,-0.568442 0.272852,-0.878501 0.274919,-0.310059 0.781349,-0.310059 0.163297,0 0.326595,0.03514 0.163298,0.03514 0.256316,0.08268 l -0.10542,0.291456 q -0.113689,-0.04548 -0.248048,-0.07441 -0.134359,-0.03101 -0.237712,-0.03101 -0.690398,0 -0.690398,0.880567 0,0.417547 0.167432,0.640789 0.169499,0.223243 0.500229,0.223243 0.283187,0 0.580844,-0.121957 v 0.303858 q -0.227377,0.117823 -0.572576,0.117823 z m 1.449009,-1.200963 q 0.08888,-0.12609 0.270785,-0.330729 l 0.731739,-0.775148 h 0.407211 l -0.917775,0.965317 0.981854,1.300181 h -0.415479 l -0.799952,-1.070737 -0.258383,0.223243 v 0.847494 h -0.338998 v -3.216346 h 0.338998 v 1.705325 q 0,0.113688 -0.01654,0.3514 z m 2.840141,1.200963 q -0.502296,0 -0.793751,-0.305925 -0.289389,-0.305925 -0.289389,-0.849562 0,-0.547771 0.268718,-0.870233 0.270785,-0.322461 0.725538,-0.322461 0.425815,0 0.673862,0.28112 0.248047,0.279053 0.248047,0.737941 v 0.217041 h -1.56063 q 0.01034,0.398943 0.200505,0.605649 0.192236,0.206706 0.539502,0.206706 0.36587,0 0.723471,-0.152963 V 81.2148 q -0.181901,0.07855 -0.345199,0.111621 -0.16123,0.03514 -0.390674,0.03514 z m -0.09302,-2.06086 q -0.272852,0 -0.43615,0.177767 -0.16123,0.177768 -0.190169,0.491961 h 1.184426 q 0,-0.324529 -0.144695,-0.496095 -0.144694,-0.173633 -0.413412,-0.173633 z m 2.544553,-0.287321 q 0.150895,0 0.270785,0.02481 l -0.04754,0.318327 q -0.14056,-0.03101 -0.248047,-0.03101 -0.274919,0 -0.47129,0.223243 -0.194304,0.223242 -0.194304,0.556039 v 1.215431 h -0.343132 v -2.265498 h 0.283188 l 0.03927,0.419613 h 0.01654 q 0.126091,-0.221175 0.303858,-0.341065 0.177767,-0.119889 0.390675,-0.119889 z"
         id="path4" />
    </g>
    <g
       transform="matrix(0.02613254,0,0,-0.02613254,10.15355,125.24976)"
       id="g1156-4-6-6"
       style="stroke-width:1.04779">
      <path
         id="path1144-0-6-4"
         style="fill:#009ddb;fill-opacity:1;fill-rule:nonzero;stroke:none;stroke-width:1.04779"
         d="M 729.715,1008.187 H 601.653 v 128.062 h 128.062 z" />
      <path
         id="path1145-7-8-9"
         style="fill:#009ddb;fill-opacity:1;fill-rule:nonzero;stroke:none;stroke-width:1.04779"
         d="M 729.715,847.194 H 601.653 v 128.062 h 128.062 z" />
      <path
         id="path1146-5-1-5"
         style="fill:#009ddb;fill-opacity:1;fill-rule:nonzero;stroke:none;stroke-width:1.04779"
         d="M 729.715,686.202 H 601.653 v 128.062 h 128.062 z" />
      <path
         id="path1147-0-6-0"
         style="fill:#009ddb;fill-opacity:1;fill-rule:nonzero;stroke:none;stroke-width:1.04779"
         d="M 574.21,847.194 H 446.148 V 975.256 H 574.21 Z" />
      <path
         id="path1148-2-8-4"
         style="fill:#009ddb;fill-opacity:1;fill-rule:nonzero;stroke:none;stroke-width:1.04779"
         d="M 574.21,686.202 H 446.148 V 814.264 H 574.21 Z" />
      <path
         id="path1149-5-2-8"
         style="fill:#009ddb;fill-opacity:1;fill-rule:nonzero;stroke:none;stroke-width:1.04779"
         d="M 418.706,847.194 H 290.644 v 128.062 h 128.062 z" />
      <path
         id="path1150-4-5-7"
         style="fill:#009ddb;fill-opacity:1;fill-rule:nonzero;stroke:none;stroke-width:1.04779"
         d="M 418.706,686.202 H 290.644 v 128.062 h 128.062 z" />
      <path
         id="path1151-2-3-1"
         style="fill:#009ddb;fill-opacity:1;fill-rule:nonzero;stroke:none;stroke-width:1.04779"
         d="M 265.031,686.202 H 136.968 v 128.062 h 128.063 z" />
      <path
         id="path1152-1-7-72"
         style="fill:#009ddb;fill-opacity:1;fill-rule:nonzero;stroke:none;stroke-width:1.04779"
         d="M 885.22,686.202 H 757.157 V 814.264 H 885.22 Z" />
      <g
         id="g1155-5-3-7"
         style="stroke-width:1.04779">
        <g
           clip-path="url(#clipPath65193-30-4-9-3-5-9-4-6-8-4-4)"
           id="g1154-1-5-22"
           style="stroke-width:1.04779">
          <g
             transform="translate(483.3027,229.75)"
             id="g1153-6-5-6"
             style="stroke-width:1.04779">
            <path
               id="path1153-0-1-1"
               style="fill:#009ddb;fill-opacity:1;fill-rule:nonzero;stroke:none;stroke-width:1.04779"
               d="m 0,0 c -471.653,0 -416.769,415.289 -416.769,415.289 h 787.426 c 132.795,0 176.702,42.077 176.702,42.077 0,0 -75.008,96.962 12.806,214.048 98.791,-56.714 95.133,-140.869 95.133,-140.869 0,0 100.62,32.93 162.822,-23.783 C 783.36,393.335 629.685,400.653 629.685,400.653 629.685,400.653 486.986,0 0,0" />
          </g>
        </g>
      </g>
    </g>
  </g>
</svg>
