<?xml version="1.0" encoding="UTF-8" standalone="no"?>
<!-- Created with Inkscape (http://www.inkscape.org/) -->

<svg
   width="245.6693"
   height="245.6693"
   viewBox="0 0 65.000001 65.000001"
   version="1.1"
   id="svg1"
   xmlns="http://www.w3.org/2000/svg"
   xmlns:svg="http://www.w3.org/2000/svg">
  <defs
     id="defs1">
    <clipPath
       id="clipPath65193-30-4-9-3-5-9-4-6-8-4-4"
       clipPathUnits="userSpaceOnUse">
      <path
         id="path65191-3-2-68-7-9-6-2-3-0-5-52"
         d="M 0,1366 H 1366 V 0 H 0 Z" />
    </clipPath>
  </defs>
  <g
     id="layer1"
     transform="translate(4.4979224,-64.822906)">
    <path
       d="m 27.998478,91.92076 c -8.7637,0 -15.8712,7.1057 -15.8712,15.873 0,7.0113 4.5477,12.961 10.855,15.0608 0.7939,0.1463 1.0836,-0.3437 1.0836,-0.7654 0,-0.3774 0,-1.375 -0.037,-2.6995 -4.4153,0.9589 -5.3467,-2.1279 -5.3467,-2.1279 -0.7223,-1.8332 -1.7627,-2.3221 -1.7627,-2.3221 -1.4411,-0.9837 0.1097,-0.9643 0.1097,-0.9643 1.593,0.1133 2.4311,1.6361 2.4311,1.6361 1.416,2.4248 3.7154,1.7242 4.6197,1.3179 0.1427,-1.0247 0.5544,-1.7246 1.0075,-2.121 -3.5245,-0.4015 -7.23,-1.763 -7.23,-7.8451 0,-1.7337 0.6188,-3.1489 1.6339,-4.2591 -0.1645,-0.4015 -0.7083,-2.0157 0.1573,-4.2003 0,0 1.3322,-0.4275 4.3644,1.6255 1.2657,-0.3511 2.6242,-0.5273 3.9736,-0.5339 1.3486,0 2.7061,0.1828 3.9735,0.5339 3.0305,-2.053 4.3605,-1.6255 4.3605,-1.6255 0.8663,2.1846 0.3218,3.7988 0.1572,4.2003 1.0174,1.1102 1.6313,2.5254 1.6313,4.2591 0,6.0975 -3.7117,7.4399 -7.2468,7.8323 0.5691,0.4908 1.077,1.458 1.077,2.9398 0,2.1217 0,3.8335 0,4.3538 0,0.4249 0.2852,0.9179 1.0912,0.7636 6.3023,-2.1034 10.8463,-8.048 10.8463,-15.059 0,-8.7673 -7.1075,-15.873 -15.8741,-15.873"
       style="fill:#000000;fill-opacity:1;fill-rule:evenodd;stroke:none;stroke-width:0.129006"
       id="path22-2-4" />
    <g
       transform="matrix(0.19360995,0,0,0.19360995,-759.39847,-659.21923)"
       id="g31-4-9"
       style="fill:#000000;fill-opacity:1">
      <g
         id="text28-7-0"
         style="line-height:0%;letter-spacing:0px;word-spacing:0px;stroke-width:1px"
         aria-label="WebThings Gateway&#10;Source">
        <path
           style="font-weight:600;font-size:32.7979px;line-height:1.25;font-family:'Zilla Slab';-inkscape-font-specification:'Zilla Slab Semi-Bold';text-align:center;text-anchor:middle"
           d="m 3952.183,3776.2415 h -1.7383 l -5.8052,18.2028 h -2.6894 l -5.2149,-15.0214 h -0.164 l -5.0508,15.0214 h -2.7223 l -6.166,-18.2028 h -1.8367 v -3.1158 h 8.1011 v 3.1158 h -2.3614 l 3.6733,12.2008 h 0.164 l 4.231,-12.2008 h -1.8695 v -3.1158 h 8.0683 v 3.1158 h -1.7383 l 4.2309,12.3648 h 0.164 l 3.3454,-12.3648 h -2.6239 v -3.1158 h 8.0027 z m 13.2831,13.7095 q -0.1968,1.9351 -1.9023,3.3782 -1.7055,1.4431 -4.6901,1.4431 -3.2142,0 -5.2805,-1.8695 -2.0662,-1.9022 -2.0662,-5.5756 0,-3.3782 1.8695,-5.6412 1.9022,-2.2631 5.2804,-2.2631 3.0502,0 4.8213,1.8367 1.8039,1.8039 1.8367,4.5917 0,0.9183 -0.1968,1.9679 h -9.9378 q 0.2952,4.1325 3.9358,4.1325 1.7055,0 2.427,-0.82 0.7544,-0.8199 0.984,-1.7382 z m -3.739,-4.2965 q 0.1312,-1.3119 -0.6231,-2.4598 -0.7216,-1.1808 -2.4599,-1.1808 -1.5743,0 -2.3942,1.0496 -0.82,1.0495 -1.0168,2.591 z m 21.5482,1.0823 q 0,3.1158 -1.6399,5.5757 -1.6399,2.4598 -5.0509,2.4598 -3.4766,0 -4.8869,-2.6238 -0.066,0.3936 -0.164,1.1479 -0.098,0.7544 -0.1639,1.1479 h -3.4766 q 0.1968,-1.0823 0.3608,-2.1974 0.1639,-1.1479 0.1639,-2.2303 v -15.4478 h -2.1974 v -2.6894 h 5.674 v 10.7577 q 0.656,-1.3119 1.8367,-2.2631 1.2135,-0.9511 3.247,-0.9511 2.7878,0 4.5261,1.9351 1.7711,1.9023 1.7711,5.3788 z m -3.6406,0.2952 q 0,-2.3286 -1.0495,-3.5422 -1.0495,-1.2463 -2.6894,-1.2463 -1.8695,0 -2.919,1.3775 -1.0496,1.3775 -1.0824,2.9846 v 1.0496 q 0,1.8039 1.0496,3.083 1.0823,1.2463 2.8206,1.2463 1.8367,0 2.8534,-1.3447 1.0167,-1.3447 1.0167,-3.6078 z m 23.3521,-6.9531 -3.1486,0.2623 -0.656,-4.0997 h -4.1653 v 15.087 h 3.575 v 3.1158 h -10.6594 v -3.1158 h 3.4438 v -15.087 h -4.1981 l -0.656,4.0997 -3.1158,-0.2623 0.656,-6.9532 h 18.2684 z m 19.1211,14.3654 h -7.9043 v -2.6894 h 2.1975 v -5.7724 q 0,-2.0991 -0.7871,-2.9518 -0.7872,-0.8856 -2.1319,-0.8856 -1.6071,0 -2.5582,1.0496 -0.9512,1.0495 -1.0168,2.5582 v 6.002 h 2.1647 v 2.6894 h -7.8715 v -2.6894 h 2.1974 v -17.1861 h -2.1974 v -2.6894 h 5.7068 v 10.2657 q 1.5087,-2.7222 4.8869,-2.7222 2.1319,0 3.6078,1.2791 1.5087,1.2791 1.5087,4.0014 v 7.0515 h 2.1974 z m 3.4438,-17.7764 v -3.8702 h 3.575 v 3.8702 z m 5.8708,17.7764 h -7.8714 v -2.6894 h 2.1974 v -9.3146 h -2.3286 v -2.7222 h 5.8052 v 12.0368 h 2.1974 z m 19.482,0 h -7.8715 v -2.6894 h 2.1647 v -5.7724 q 0,-2.0991 -0.7544,-2.9518 -0.7543,-0.8856 -2.0991,-0.8856 -1.6727,0 -2.6566,1.0824 -0.9511,1.0823 -0.9839,2.6566 v 5.8708 h 2.1974 v 2.6894 h -7.9043 v -2.6894 h 2.1975 v -9.3146 h -2.2959 v -2.7222 h 5.8053 v 2.3942 q 1.5415,-2.6894 4.8869,-2.6894 2.099,0 3.6077,1.2791 1.5087,1.2791 1.5087,4.0014 v 7.0515 h 2.1975 z m 18.2684,-12.004 h -2.1319 v 11.4465 q 0,3.5093 -1.9679,5.674 -1.935,2.1647 -5.8052,2.1647 -2.2958,0 -4.2965,-0.984 -2.0007,-0.9839 -2.8206,-3.3782 l 2.7222,-1.4759 q 1.3775,3.0175 4.4605,3.0175 1.8367,0 3.0174,-1.312 1.1807,-1.3119 1.1807,-3.7389 v -2.1975 q -0.6231,1.1807 -1.8038,2.0335 -1.148,0.8199 -3.1814,0.8199 -2.5911,0 -4.4933,-1.8039 -1.8695,-1.8366 -1.8695,-5.3132 0,-3.1486 1.6727,-5.5429 1.7055,-2.427 4.9196,-2.427 3.3454,0 4.7557,2.591 v -2.2958 h 5.6413 z m -5.6413,4.9853 v -1.1807 q 0,-1.8367 -1.0495,-2.9191 -1.0495,-1.0823 -2.6238,-1.0823 -1.8367,0 -2.8206,1.3447 -0.984,1.3119 -0.984,3.575 0,2.3287 0.984,3.4438 0.9839,1.0823 2.4926,1.0823 1.8695,0 2.919,-1.3119 1.0823,-1.3119 1.0823,-2.9518 z m 19.9084,2.6238 q 0,2.2959 -1.9023,3.5094 -1.8695,1.2135 -4.7885,1.2135 -1.5743,0 -3.1814,-0.3608 -1.5743,-0.3607 -2.8534,-1.0823 l 0.5247,-3.8045 2.7551,0.2623 -0.033,1.9023 q 0.6231,0.2624 1.3119,0.3608 0.7215,0.098 1.2791,0.098 1.3447,0 2.3286,-0.4592 1.0168,-0.492 1.0168,-1.4431 0,-0.9183 -0.9184,-1.3119 -0.8855,-0.3936 -2.2302,-0.5904 -1.3447,-0.2296 -2.6894,-0.5903 -1.3448,-0.3936 -2.2631,-1.2464 -0.8855,-0.8855 -0.8855,-2.6238 0,-2.5582 1.935,-3.5094 1.9679,-0.9511 4.1326,-0.9511 2.8534,0 5.3788,1.3447 l 0.3608,3.6406 -2.755,0.328 -0.2952,-2.1975 q -1.2791,-0.492 -2.591,-0.492 -1.0168,0 -1.7383,0.4264 -0.6888,0.3936 -0.6888,1.2791 0,0.9184 0.8856,1.2791 0.8855,0.3608 2.1974,0.5904 1.3119,0.1968 2.6238,0.5904 1.312,0.3607 2.1975,1.2463 0.8856,0.8527 0.8856,2.591 z"
           id="path9" />
        <path
           style="font-size:32.7979px;line-height:1.25;font-family:'Zilla Slab';-inkscape-font-specification:'Zilla Slab Bold';text-align:center;text-anchor:middle"
           d="m 4112.3348,3785.5889 h -1.6727 v 8.8554 h -1.8367 l -0.2952,-2.9518 q -0.9511,1.4103 -2.7222,2.3615 -1.7383,0.9183 -4.0997,0.9183 -4.3949,0 -7.1172,-3.1486 -2.7222,-3.1486 -2.7222,-7.7403 0,-3.083 1.3119,-5.5756 1.3447,-2.5255 3.6734,-4.0014 2.3614,-1.5087 5.4116,-1.5087 2.5583,0 4.4606,0.7216 1.935,0.6887 3.1486,1.7711 l 0.5903,4.0013 -2.0335,0.2296 -0.6559,-3.0174 q -0.8856,-0.5904 -2.1647,-1.0495 -1.2463,-0.492 -3.2142,-0.492 -3.5749,0 -5.7724,2.4598 -2.1975,2.4599 -2.1975,6.3628 0,3.9686 2.0991,6.3956 2.0991,2.4271 5.6085,2.4271 2.919,0 4.5261,-1.5743 1.6071,-1.6071 1.6071,-3.5422 v -1.9023 h -5.0837 v -2.1319 h 9.1506 z m 3.5422,-4.6245 q 1.1479,-0.7544 2.427,-1.0823 1.2791,-0.328 2.7222,-0.328 5.2149,0 5.2149,4.8869 v 6.9531 q 0,1.5743 1.2463,1.5743 0.5576,0 0.984,-0.1968 l 0.033,1.5087 q -0.8856,0.492 -1.9023,0.492 -2.5911,0 -2.6566,-2.9518 v -0.066 q -0.6888,1.1807 -1.9679,2.0991 -1.2463,0.9183 -3.0174,0.9183 -1.4431,0 -2.9518,-0.8855 -1.4759,-0.8856 -1.4759,-3.2142 0,-2.755 2.1646,-3.6078 2.1975,-0.8855 4.6573,-0.8855 0.656,0 1.3119,0.033 0.6888,0.033 1.2792,0.098 v -1.312 q 0,-1.5743 -0.6888,-2.5582 -0.656,-0.9839 -2.6238,-0.9839 -1.6071,0 -2.8207,0.5903 l -0.5575,2.5255 -1.9023,-0.2296 z m 8.0683,8.0027 v -1.1151 q -0.6232,-0.033 -1.312,-0.098 -0.6887,-0.066 -1.4103,-0.066 -1.6399,0 -2.9846,0.5247 -1.3119,0.492 -1.3119,2.1975 0,1.4103 0.8855,1.9351 0.8856,0.5247 1.8367,0.5247 1.5087,0 2.8206,-1.0495 1.3448,-1.0495 1.476,-2.8534 z m 17.1205,1.5415 q -0.5904,4.2637 -4.6245,4.2637 -2.1975,0 -3.3782,-1.2463 -1.148,-1.2463 -1.148,-3.3782 v -8.4618 h -2.3614 v -1.8367 h 2.3614 v -4.6901 h 2.2959 v 4.6901 h 5.7068 v 1.8367 h -5.7068 v 8.1666 q 0,1.3119 0.5576,2.1319 0.5903,0.7871 1.9022,0.7871 0.8528,0 1.5743,-0.5247 0.7544,-0.5248 1.0824,-2.2959 z m 14.431,-0.2624 q -0.2952,1.8695 -1.8695,3.2142 -1.5743,1.3119 -4.2637,1.3119 -3.083,0 -4.9853,-1.9351 -1.9023,-1.935 -1.9023,-5.4772 0,-3.411 1.8039,-5.6085 1.8039,-2.1974 4.8869,-2.1974 3.0174,0 4.5917,1.9023 1.5743,1.9022 1.6071,4.4933 0,0.8527 -0.1968,1.7383 h -10.2657 q 0.1967,5.1164 4.6245,5.1164 1.7382,0 2.7222,-0.8199 0.9839,-0.82 1.3119,-2.1647 z m -2.5583,-4.2637 q 0.164,-1.6399 -0.7871,-3.083 -0.9183,-1.4431 -3.0502,-1.4431 -2.0335,0 -2.9846,1.3447 -0.9512,1.3447 -1.1807,3.1814 z m 28.2062,-4.2637 h -1.6727 l -4.2965,12.7255 h -1.7711 l -4.4605,-11.1513 h -0.164 l -4.3621,11.1513 h -1.7055 l -4.4605,-12.7255 h -1.6071 v -1.8695 h 6.8875 v 1.8695 h -2.7878 l 3.0502,9.2162 h 0.164 l 4.3293,-11.0857 h 1.5415 l 4.5589,11.0857 h 0.164 l 2.6894,-9.2162 h -2.6566 v -1.8695 h 6.5596 z m 2.9845,-0.7544 q 1.148,-0.7544 2.4271,-1.0823 1.2791,-0.328 2.7222,-0.328 5.2149,0 5.2149,4.8869 v 6.9531 q 0,1.5743 1.2463,1.5743 0.5576,0 0.9839,-0.1968 l 0.033,1.5087 q -0.8855,0.492 -1.9022,0.492 -2.5911,0 -2.6567,-2.9518 v -0.066 q -0.6887,1.1807 -1.9678,2.0991 -1.2464,0.9183 -3.0175,0.9183 -1.4431,0 -2.9518,-0.8855 -1.4759,-0.8856 -1.4759,-3.2142 0,-2.755 2.1647,-3.6078 2.1974,-0.8855 4.6573,-0.8855 0.6559,0 1.3119,0.033 0.6888,0.033 1.2791,0.098 v -1.312 q 0,-1.5743 -0.6887,-2.5582 -0.656,-0.9839 -2.6239,-0.9839 -1.6071,0 -2.8206,0.5903 l -0.5575,2.5255 -1.9023,-0.2296 z m 8.0683,8.0027 v -1.1151 q -0.6231,-0.033 -1.3119,-0.098 -0.6887,-0.066 -1.4103,-0.066 -1.6399,0 -2.9846,0.5247 -1.3119,0.492 -1.3119,2.1975 0,1.4103 0.8855,1.9351 0.8856,0.5247 1.8367,0.5247 1.5087,0 2.8206,-1.0495 1.3447,-1.0495 1.4759,-2.8534 z m 20.8922,-7.2483 h -1.7382 l -5.1493,12.7255 -1.9679,5.1165 h 2.4927 v 1.8695 h -7.4124 v -1.8695 h 2.7223 l 1.9022,-5.1493 -5.3132,-12.6927 h -1.7383 v -1.8695 h 6.7564 v 1.8695 h -2.5583 l 4.0998,9.8065 h 0.1967 l 3.6406,-9.8065 h -2.3614 v -1.8695 h 6.4283 z"
           id="path10" />
        <path
           style="font-size:21.8653px;line-height:1.25;font-family:'Open Sans';-inkscape-font-specification:'Open Sans Bold';text-align:center;text-anchor:middle"
           d="m 4042.8966,3820.7506 q 0,2.0606 -1.4947,3.2136 -1.4947,1.1531 -4.057,1.1531 -2.7759,0 -4.2706,-0.7153 v -1.751 q 0.9609,0.4057 2.0926,0.6406 1.1317,0.2349 2.2421,0.2349 1.815,0 2.7331,-0.6833 0.9182,-0.694 0.9182,-1.9217 0,-0.8115 -0.331,-1.3239 -0.3203,-0.5232 -1.089,-0.9609 -0.758,-0.4377 -2.3167,-0.9929 -2.178,-0.7794 -3.1176,-1.847 -0.9288,-1.0677 -0.9288,-2.7866 0,-1.8043 1.3559,-2.8719 1.3559,-1.0677 3.5873,-1.0677 2.3274,0 4.2812,0.8541 l -0.5658,1.5802 q -1.9325,-0.8115 -3.7581,-0.8115 -1.4413,0 -2.2528,0.6193 -0.8114,0.6192 -0.8114,1.7189 0,0.8114 0.299,1.3345 0.2989,0.5125 1.0036,0.9502 0.7153,0.4271 2.1779,0.9502 2.4556,0.8755 3.3738,1.8791 0.9288,1.0036 0.9288,2.605 z m 13.0253,-1.7082 q 0,2.8613 -1.4413,4.4734 -1.4414,1.6015 -3.9823,1.6015 -1.5695,0 -2.7866,-0.7367 -1.2171,-0.7367 -1.879,-2.1139 -0.662,-1.3773 -0.662,-3.2243 0,-2.8613 1.4307,-4.4521 1.4306,-1.6014 3.9716,-1.6014 2.4556,0 3.8969,1.6335 1.452,1.6335 1.452,4.42 z m -8.9148,0 q 0,2.242 0.8968,3.4165 0.8968,1.1744 2.6371,1.1744 1.7402,0 2.637,-1.1638 0.9075,-1.1744 0.9075,-3.4271 0,-2.2314 -0.9075,-3.3844 -0.8968,-1.1638 -2.6584,-1.1638 -1.7403,0 -2.6264,1.1424 -0.8861,1.1424 -0.8861,3.4058 z m 13.6871,-5.84 v 7.5909 q 0,1.4307 0.6513,2.1353 0.6513,0.7047 2.0392,0.7047 1.8363,0 2.6798,-1.0036 0.8541,-1.0036 0.8541,-3.2777 v -6.1496 h 1.7723 v 11.7014 h -1.4627 l -0.2562,-1.5695 h -0.096 q -0.5445,0.8648 -1.5161,1.3239 -0.9609,0.4591 -2.1993,0.4591 -2.1353,0 -3.2029,-1.0143 -1.057,-1.0142 -1.057,-3.2456 v -7.655 z m 17.093,-0.2135 q 0.7794,0 1.3986,0.1281 l -0.2456,1.6442 q -0.726,-0.1602 -1.2811,-0.1602 -1.42,0 -2.4343,1.1531 -1.0036,1.153 -1.0036,2.8719 v 6.2778 h -1.7722 v -11.7014 h 1.4626 l 0.2029,2.1673 h 0.085 q 0.6513,-1.1424 1.5694,-1.7616 0.9182,-0.6192 2.0179,-0.6192 z m 8.2635,12.1284 q -2.541,0 -3.9396,-1.5588 -1.3879,-1.5694 -1.3879,-4.4307 0,-2.936 1.4093,-4.5375 1.4199,-1.6014 4.0357,-1.6014 0.8434,0 1.6868,0.1815 0.8435,0.1815 1.3239,0.427 l -0.5445,1.5054 q -0.5872,-0.2349 -1.2812,-0.3843 -0.6939,-0.1602 -1.2277,-0.1602 -3.566,0 -3.566,4.5482 0,2.1566 0.8648,3.3096 0.8755,1.1531 2.5837,1.1531 1.4627,0 3.0001,-0.6299 v 1.5694 q -1.1744,0.6086 -2.9574,0.6086 z m 10.6764,0 q -2.5943,0 -4.0997,-1.5801 -1.4947,-1.5801 -1.4947,-4.388 0,-2.8293 1.3879,-4.4948 1.3986,-1.6655 3.7474,-1.6655 2.1994,0 3.4806,1.452 1.2811,1.4413 1.2811,3.8114 v 1.1211 h -8.0607 q 0.053,2.0605 1.0356,3.1282 0.993,1.0676 2.7866,1.0676 1.8897,0 3.7367,-0.7901 v 1.5802 q -0.9395,0.4057 -1.7829,0.5765 -0.8328,0.1815 -2.0179,0.1815 z m -0.4804,-10.6444 q -1.4093,0 -2.2527,0.9182 -0.8328,0.9181 -0.9823,2.541 h 6.1176 q 0,-1.6762 -0.7473,-2.5624 -0.7474,-0.8968 -2.1353,-0.8968 z"
           id="path11" />
      </g>
    </g>
  </g>
</svg>
