<?xml version="1.0" encoding="UTF-8" standalone="no"?>
<!-- Created with Inkscape (http://www.inkscape.org/) -->

<svg
   width="245.6693"
   height="245.6693"
   viewBox="0 0 65.000001 65.000001"
   version="1.1"
   id="svg1"
   xmlns="http://www.w3.org/2000/svg"
   xmlns:svg="http://www.w3.org/2000/svg">
  <defs
     id="defs1">
    <clipPath
       id="clipPath65193-30-4-9-3-5-9-4-6-8-4-4"
       clipPathUnits="userSpaceOnUse">
      <path
         id="path65191-3-2-68-7-9-6-2-3-0-5-52"
         d="M 0,1366 H 1366 V 0 H 0 Z" />
    </clipPath>
  </defs>
  <g
     id="layer1"
     transform="translate(4.4979224,-64.822906)">
    <g
       id="text316"
       style="font-size:2.32332px;line-height:0%;letter-spacing:0px;word-spacing:0px;stroke-width:0.19361px"
       aria-label="WebThings Gateway&#10;for Raspberry Pi">
      <path
         style="font-weight:600;font-size:6.35px;line-height:1.25;font-family:'Zilla Slab';-inkscape-font-specification:'Zilla Slab Semi-Bold';text-align:center;text-anchor:middle"
         d="m 5.7580898,71.898716 h -0.33655 l -1.12395,3.52425 h -0.5207 l -1.00965,-2.9083 h -0.03175 l -0.9779,2.9083 h -0.52705 l -1.19379994,-3.52425 h -0.3556 v -0.60325 H 1.2495898 v 0.60325 H 0.79238984 l 0.71119996,2.3622 h 0.03175 l 0.81915,-2.3622 h -0.36195 v -0.60325 h 1.5621 v 0.60325 h -0.33655 l 0.81915,2.39395 h 0.03175 l 0.6477,-2.39395 h -0.508 v -0.60325 h 1.5494 z m 2.5717297,2.6543 q -0.0381,0.37465 -0.3683,0.65405 -0.3302,0.2794 -0.90805,0.2794 -0.6223,0 -1.02235,-0.36195 -0.40005,-0.3683 -0.40005,-1.0795 0,-0.65405 0.36195,-1.0922 0.3683,-0.43815 1.02235,-0.43815 0.59055,0 0.93345,0.3556 0.34925,0.34925 0.3556,0.889 0,0.1778 -0.0381,0.381 h -1.92405 q 0.05715,0.8001 0.762,0.8001 0.3302,0 0.4699,-0.15875 0.14605,-0.15875 0.1905,-0.33655 z m -0.7239,-0.83185 q 0.0254,-0.254 -0.12065,-0.47625 -0.1397,-0.2286 -0.47625,-0.2286 -0.3048,0 -0.46355,0.2032 -0.15875,0.2032 -0.19685,0.50165 z m 4.1719415,0.20955 q 0,0.60325 -0.3175,1.0795 -0.3175,0.47625 -0.9779,0.47625 -0.6730998,0 -0.9461498,-0.508 -0.0127,0.0762 -0.03175,0.22225 -0.01905,0.14605 -0.03175,0.22225 h -0.6731 q 0.0381,-0.20955 0.06985,-0.42545 0.03175,-0.22225 0.03175,-0.4318 v -2.99085 h -0.42545 v -0.5207 h 1.09855 v 2.0828 q 0.127,-0.254 0.3556,-0.43815 0.2349498,-0.18415 0.6286498,-0.18415 0.53975,0 0.8763,0.37465 0.3429,0.3683 0.3429,1.0414 z m -0.70485,0.05715 q 0,-0.45085 -0.2032,-0.6858 -0.2032,-0.2413 -0.5207,-0.2413 -0.3619498,0 -0.5651498,0.2667 -0.2032,0.2667 -0.20955,0.57785 v 0.2032 q 0,0.34925 0.2032,0.5969 0.20955,0.2413 0.5460998,0.2413 0.3556,0 0.55245,-0.26035 0.19685,-0.26035 0.19685,-0.6985 z m 4.521188,-1.3462 -0.6096,0.0508 -0.127,-0.79375 h -0.80645 v 2.921 h 0.69215 v 0.60325 h -2.06375 v -0.60325 h 0.66675 v -2.921 h -0.8128 l -0.127,0.79375 -0.60325,-0.0508 0.127,-1.3462 h 3.53695 z m 3.70205,2.7813 h -1.53035 v -0.5207 h 0.42545 v -1.1176 q 0,-0.4064 -0.1524,-0.5715 -0.1524,-0.17145 -0.41275,-0.17145 -0.31115,0 -0.4953,0.2032 -0.18415,0.2032 -0.19685,0.4953 v 1.16205 h 0.4191 v 0.5207 h -1.524 v -0.5207 h 0.42545 v -3.3274 h -0.42545 v -0.5207 h 1.1049 v 1.98755 q 0.2921,-0.52705 0.94615,-0.52705 0.41275,0 0.6985,0.24765 0.2921,0.24765 0.2921,0.7747 v 1.36525 h 0.42545 z m 0.666749,-3.4417 v -0.7493 h 0.69215 v 0.7493 z m 1.13665,3.4417 h -1.524 v -0.5207 h 0.42545 v -1.8034 h -0.45085 v -0.52705 h 1.12395 v 2.33045 h 0.42545 z m 3.771899,0 h -1.524 v -0.5207 h 0.4191 v -1.1176 q 0,-0.4064 -0.14605,-0.5715 -0.14605,-0.17145 -0.4064,-0.17145 -0.32385,0 -0.51435,0.20955 -0.18415,0.20955 -0.1905,0.51435 v 1.13665 h 0.42545 v 0.5207 h -1.53035 v -0.5207 h 0.42545 v -1.8034 h -0.4445 v -0.52705 h 1.12395 v 0.46355 q 0.29845,-0.5207 0.94615,-0.5207 0.4064,0 0.6985,0.24765 0.2921,0.24765 0.2921,0.7747 v 1.36525 h 0.42545 z m 3.53694,-2.3241 h -0.41275 v 2.21615 q 0,0.67945 -0.381,1.09855 -0.37465,0.4191 -1.12395,0.4191 -0.4445,0 -0.83185,-0.1905 -0.38735,-0.1905 -0.5461,-0.65405 l 0.52705,-0.28575 q 0.2667,0.5842 0.8636,0.5842 0.3556,0 0.5842,-0.254 0.2286,-0.254 0.2286,-0.7239 v -0.42545 q -0.12065,0.2286 -0.34925,0.3937 -0.22225,0.15875 -0.61595,0.15875 -0.50165,0 -0.86995,-0.34925 -0.36195,-0.3556 -0.36195,-1.0287 0,-0.6096 0.32385,-1.07315 0.3302,-0.4699 0.9525,-0.4699 0.6477,0 0.92075,0.50165 v -0.4445 h 1.0922 z m -1.0922,0.9652 v -0.2286 q 0,-0.3556 -0.2032,-0.56515 -0.2032,-0.20955 -0.508,-0.20955 -0.3556,0 -0.5461,0.26035 -0.1905,0.254 -0.1905,0.69215 0,0.45085 0.1905,0.66675 0.1905,0.20955 0.4826,0.20955 0.36195,0 0.56515,-0.254 0.20955,-0.254 0.20955,-0.5715 z"
         id="path6" />
      <path
         style="font-weight:bold;font-size:6.35px;line-height:1.25;font-family:'Zilla Slab';-inkscape-font-specification:'Zilla Slab Bold';text-align:center;text-anchor:middle"
         d="m 31.259635,74.546666 q 0,0.47625 -0.381,0.7112 -0.37465,0.2286 -0.9779,0.2286 -0.31115,0 -0.62865,-0.0635 -0.31115,-0.06985 -0.5969,-0.2159 l 0.1143,-0.8001 0.635,0.06985 v 0.3556 q 0.1143,0.0381 0.2413,0.0508 0.127,0.0063 0.1905,0.0063 0.23495,0 0.4064,-0.0762 0.17145,-0.0762 0.17145,-0.2286 0,-0.18415 -0.26035,-0.2413 -0.26035,-0.05715 -0.60325,-0.1143 -0.3429,-0.05715 -0.60325,-0.23495 -0.26035,-0.1778 -0.26035,-0.60325 0,-0.52705 0.4064,-0.70485 0.41275,-0.18415 0.8509,-0.18415 0.5715,0 1.07315,0.26035 l 0.06985,0.73025 -0.635,0.06985 -0.0508,-0.40005 q -0.20955,-0.06985 -0.45085,-0.06985 -0.15875,0 -0.27305,0.06985 -0.10795,0.0635 -0.10795,0.2032 0,0.18415 0.24765,0.24765 0.254,0.05715 0.5842,0.1143 0.33655,0.05715 0.5842,0.23495 0.254,0.17145 0.254,0.5842 z"
         id="path7" />
      <path
         style="font-size:6.35px;line-height:1.25;font-family:'Zilla Slab';-inkscape-font-specification:'Zilla Slab Bold';text-align:center;text-anchor:middle"
         d="m 36.81587,73.708466 h -0.32385 v 1.7145 h -0.3556 l -0.05715,-0.5715 q -0.18415,0.27305 -0.52705,0.4572 -0.33655,0.1778 -0.79375,0.1778 -0.8509,0 -1.37795,-0.6096 -0.52705,-0.6096 -0.52705,-1.4986 0,-0.5969 0.254,-1.0795 0.26035,-0.48895 0.7112,-0.7747 0.4572,-0.2921 1.04775,-0.2921 0.4953,0 0.8636,0.1397 0.37465,0.13335 0.6096,0.3429 l 0.1143,0.7747 -0.3937,0.04445 -0.127,-0.5842 q -0.17145,-0.1143 -0.4191,-0.2032 -0.2413,-0.09525 -0.6223,-0.09525 -0.69215,0 -1.1176,0.47625 -0.42545,0.47625 -0.42545,1.2319 0,0.76835 0.4064,1.23825 0.4064,0.4699 1.08585,0.4699 0.56515,0 0.8763,-0.3048 0.31115,-0.31115 0.31115,-0.6858 v -0.3683 h -0.98425 v -0.41275 h 1.77165 z m 0.685802,-0.89535 q 0.22225,-0.14605 0.4699,-0.20955 0.24765,-0.0635 0.52705,-0.0635 1.00965,0 1.00965,0.94615 v 1.3462 q 0,0.3048 0.2413,0.3048 0.10795,0 0.1905,-0.0381 l 0.0063,0.2921 q -0.17145,0.09525 -0.3683,0.09525 -0.50165,0 -0.51435,-0.5715 v -0.0127 q -0.13335,0.2286 -0.381,0.4064 -0.2413,0.1778 -0.5842,0.1778 -0.2794,0 -0.5715,-0.17145 -0.28575,-0.17145 -0.28575,-0.6223 0,-0.5334 0.4191,-0.6985 0.42545,-0.17145 0.9017,-0.17145 0.127,0 0.254,0.0063 0.13335,0.0063 0.24765,0.01905 v -0.254 q 0,-0.3048 -0.13335,-0.4953 -0.127,-0.1905 -0.508,-0.1905 -0.31115,0 -0.5461,0.1143 l -0.10795,0.48895 -0.3683,-0.04445 z m 1.5621,1.5494 v -0.2159 q -0.12065,-0.0063 -0.254,-0.01905 -0.13335,-0.0127 -0.27305,-0.0127 -0.3175,0 -0.57785,0.1016 -0.254,0.09525 -0.254,0.42545 0,0.27305 0.17145,0.37465 0.17145,0.1016 0.3556,0.1016 0.2921,0 0.5461,-0.2032 0.26035,-0.2032 0.28575,-0.55245 z m 3.314697,0.29845 q -0.1143,0.8255 -0.89535,0.8255 -0.42545,0 -0.65405,-0.2413 -0.22225,-0.2413 -0.22225,-0.65405 v -1.6383 h -0.4572 v -0.3556 h 0.4572 v -0.90805 h 0.4445 v 0.90805 h 1.1049 v 0.3556 h -1.1049 v 1.58115 q 0,0.254 0.10795,0.41275 0.1143,0.1524 0.3683,0.1524 0.1651,0 0.3048,-0.1016 0.14605,-0.1016 0.20955,-0.4445 z m 2.793993,-0.0508 q -0.05715,0.36195 -0.36195,0.6223 -0.3048,0.254 -0.8255,0.254 -0.5969,0 -0.9652,-0.37465 -0.3683,-0.37465 -0.3683,-1.06045 0,-0.6604 0.34925,-1.08585 0.34925,-0.42545 0.94615,-0.42545 0.5842,0 0.889,0.3683 0.3048,0.3683 0.31115,0.86995 0,0.1651 -0.0381,0.33655 h -1.98755 q 0.0381,0.9906 0.89535,0.9906 0.33655,0 0.52705,-0.15875 0.1905,-0.15875 0.254,-0.4191 z m -0.4953,-0.8255 q 0.03175,-0.3175 -0.1524,-0.5969 -0.1778,-0.2794 -0.59055,-0.2794 -0.3937,0 -0.57785,0.26035 -0.18415,0.26035 -0.2286,0.61595 z m 5.460987,-0.8255 h -0.32385 l -0.83185,2.4638 h -0.3429 l -0.8636,-2.159 h -0.03175 l -0.84455,2.159 h -0.3302 l -0.8636,-2.4638 h -0.31115 v -0.36195 h 1.3335 v 0.36195 h -0.53975 l 0.59055,1.78435 h 0.03175 l 0.8382,-2.1463 h 0.29845 l 0.88265,2.1463 h 0.03175 l 0.5207,-1.78435 h -0.51435 v -0.36195 h 1.27 z m 0.577844,-0.14605 q 0.22225,-0.14605 0.4699,-0.20955 0.24765,-0.0635 0.52705,-0.0635 1.00965,0 1.00965,0.94615 v 1.3462 q 0,0.3048 0.2413,0.3048 0.10795,0 0.1905,-0.0381 l 0.0063,0.2921 q -0.17145,0.09525 -0.3683,0.09525 -0.50165,0 -0.51435,-0.5715 v -0.0127 q -0.13335,0.2286 -0.381,0.4064 -0.2413,0.1778 -0.5842,0.1778 -0.2794,0 -0.5715,-0.17145 -0.28575,-0.17145 -0.28575,-0.6223 0,-0.5334 0.4191,-0.6985 0.42545,-0.17145 0.9017,-0.17145 0.127,0 0.254,0.0063 0.13335,0.0063 0.24765,0.01905 v -0.254 q 0,-0.3048 -0.13335,-0.4953 -0.127,-0.1905 -0.508,-0.1905 -0.31115,0 -0.5461,0.1143 l -0.10795,0.48895 -0.3683,-0.04445 z m 1.5621,1.5494 v -0.2159 q -0.12065,-0.0063 -0.254,-0.01905 -0.13335,-0.0127 -0.27305,-0.0127 -0.3175,0 -0.57785,0.1016 -0.254,0.09525 -0.254,0.42545 0,0.27305 0.17145,0.37465 0.17145,0.1016 0.3556,0.1016 0.2921,0 0.5461,-0.2032 0.26035,-0.2032 0.28575,-0.55245 z m 4.044935,-1.40335 h -0.33655 l -0.99695,2.4638 -0.381,0.9906 h 0.4826 v 0.36195 h -1.4351 v -0.36195 h 0.52705 l 0.3683,-0.99695 -1.0287,-2.45745 h -0.33655 v -0.36195 h 1.3081 v 0.36195 h -0.4953 l 0.79375,1.89865 h 0.0381 l 0.70485,-1.89865 h -0.4572 v -0.36195 h 1.2446 z"
         id="path8" />
      <path
         style="font-size:4.23334px;line-height:1.25;font-family:'Open Sans';-inkscape-font-specification:'Open Sans Bold';text-align:center;text-anchor:middle"
         d="m 13.568322,79.321365 h -0.57671 v 1.998848 H 12.64848 v -1.998848 h -0.405144 v -0.155029 l 0.405144,-0.124024 v -0.126091 q 0,-0.835092 0.729672,-0.835092 0.179835,0 0.421681,0.07235 l -0.08888,0.274919 q -0.198438,-0.06408 -0.338998,-0.06408 -0.194303,0 -0.287321,0.130225 -0.09302,0.128158 -0.09302,0.413412 v 0.146761 h 0.57671 z m 2.368851,0.864031 q 0,0.553973 -0.279053,0.866099 -0.279053,0.310059 -0.771014,0.310059 -0.303857,0 -0.539502,-0.142627 -0.235645,-0.142627 -0.363803,-0.409278 -0.128158,-0.266651 -0.128158,-0.624253 0,-0.553972 0.276986,-0.861964 0.276987,-0.310059 0.768947,-0.310059 0.475424,0 0.754477,0.31626 0.28112,0.316261 0.28112,0.855763 z m -1.725995,0 q 0,0.434083 0.173633,0.66146 0.173633,0.227376 0.510564,0.227376 0.336931,0 0.510564,-0.225309 0.1757,-0.227377 0.1757,-0.663527 0,-0.432015 -0.1757,-0.655258 -0.173633,-0.225309 -0.514698,-0.225309 -0.336931,0 -0.508497,0.221175 -0.171566,0.221176 -0.171566,0.659392 z m 3.36104,-1.172023 q 0.150895,0 0.270785,0.02481 l -0.04754,0.318327 q -0.140561,-0.03101 -0.248048,-0.03101 -0.274919,0 -0.471289,0.223243 -0.194304,0.223242 -0.194304,0.556039 v 1.215432 h -0.343132 v -2.265499 h 0.283187 l 0.03927,0.419614 h 0.01654 q 0.12609,-0.221176 0.303858,-0.341065 0.177767,-0.11989 0.390674,-0.11989 z m 2.197285,1.050067 v 1.256773 h -0.3514 V 78.29817 h 0.828891 q 0.556039,0 0.820623,0.212908 0.266651,0.212907 0.266651,0.640788 0,0.599448 -0.607716,0.810288 l 0.820623,1.358059 h -0.415479 l -0.73174,-1.256773 z m 0,-0.301791 h 0.481625 q 0.372071,0 0.545704,-0.146761 0.173633,-0.148829 0.173633,-0.444418 0,-0.299724 -0.177767,-0.432016 -0.1757,-0.132292 -0.566375,-0.132292 h -0.45682 z m 3.60702,1.558564 -0.06821,-0.322462 h -0.01654 q -0.169499,0.212907 -0.338998,0.289389 -0.167432,0.07441 -0.419613,0.07441 -0.336931,0 -0.529168,-0.173633 -0.190169,-0.173633 -0.190169,-0.494028 0,-0.686264 1.097609,-0.719337 l 0.384473,-0.0124 v -0.14056 q 0,-0.266651 -0.115755,-0.392742 -0.113689,-0.128157 -0.36587,-0.128157 -0.283187,0 -0.640789,0.173633 l -0.10542,-0.262517 q 0.167432,-0.09095 0.36587,-0.142627 0.200505,-0.05168 0.40101,-0.05168 0.405143,0 0.599447,0.179835 0.196371,0.179834 0.196371,0.576709 v 1.546162 z m -0.775147,-0.241846 q 0.320394,0 0.502295,-0.175701 0.183969,-0.1757 0.183969,-0.49196 v -0.204639 l -0.343132,0.01447 q -0.409278,0.01447 -0.59118,0.128157 -0.179834,0.111622 -0.179834,0.349333 0,0.186036 0.111621,0.283188 0.113689,0.09715 0.316261,0.09715 z m 3.197742,-0.376205 q 0,0.31626 -0.235645,0.487826 -0.235645,0.171566 -0.661459,0.171566 -0.450619,0 -0.702801,-0.142627 v -0.318328 q 0.163298,0.08268 0.349333,0.130225 0.188103,0.04754 0.361736,0.04754 0.268718,0 0.413412,-0.08475 0.144694,-0.08682 0.144694,-0.262517 0,-0.132291 -0.115755,-0.225309 -0.113688,-0.09508 -0.446485,-0.223243 -0.31626,-0.117822 -0.450619,-0.204639 -0.132292,-0.08888 -0.198438,-0.200505 -0.06408,-0.111621 -0.06408,-0.26665 0,-0.276986 0.22531,-0.43615 0.225309,-0.161231 0.618051,-0.161231 0.365869,0 0.715203,0.148829 l -0.121957,0.279053 q -0.341065,-0.14056 -0.618051,-0.14056 -0.243913,0 -0.367937,0.07648 -0.124024,0.07648 -0.124024,0.21084 0,0.09095 0.04548,0.15503 0.04754,0.06408 0.150895,0.121956 0.103353,0.05788 0.396876,0.167432 0.403077,0.146761 0.543637,0.29559 0.142627,0.148828 0.142627,0.374138 z m 1.612308,0.659392 q -0.221176,0 -0.405144,-0.08061 -0.181901,-0.08268 -0.305925,-0.252182 h -0.02481 q 0.02481,0.198438 0.02481,0.376205 v 0.932244 h -0.343132 v -3.282492 h 0.279053 l 0.04754,0.31006 h 0.01654 q 0.132292,-0.186036 0.307992,-0.268718 0.1757,-0.08268 0.403077,-0.08268 0.450619,0 0.694532,0.307992 0.24598,0.307992 0.24598,0.864031 0,0.558107 -0.250114,0.868166 -0.248047,0.307992 -0.690398,0.307992 z m -0.04961,-2.056725 q -0.347266,0 -0.502295,0.192236 -0.15503,0.192237 -0.159164,0.61185 v 0.07648 q 0,0.477491 0.159164,0.684198 0.159163,0.204638 0.510564,0.204638 0.293522,0 0.458887,-0.237711 0.167432,-0.237712 0.167432,-0.655259 0,-0.423747 -0.167432,-0.649057 -0.165365,-0.227376 -0.467156,-0.227376 z m 2.643771,-0.287322 q 0.446485,0 0.692465,0.305925 0.248047,0.303858 0.248047,0.861964 0,0.558107 -0.250114,0.868166 -0.248047,0.307992 -0.690398,0.307992 -0.221176,0 -0.405144,-0.08061 -0.181901,-0.08268 -0.305925,-0.252182 h -0.02481 l -0.07235,0.291456 h -0.24598 v -3.216346 h 0.343132 v 0.781348 q 0,0.262517 -0.01654,0.47129 h 0.01654 q 0.239779,-0.338998 0.711069,-0.338998 z m -0.04961,0.287322 q -0.3514,0 -0.506429,0.202572 -0.15503,0.200505 -0.15503,0.677995 0,0.477491 0.159164,0.684198 0.159163,0.204638 0.510564,0.204638 0.31626,0 0.471289,-0.229443 0.15503,-0.231511 0.15503,-0.663527 0,-0.442351 -0.15503,-0.659392 -0.155029,-0.217041 -0.479558,-0.217041 z m 2.546618,2.056725 q -0.502296,0 -0.793751,-0.305925 -0.289389,-0.305925 -0.289389,-0.849562 0,-0.547771 0.268718,-0.870232 0.270785,-0.322462 0.725539,-0.322462 0.425814,0 0.673861,0.28112 0.248047,0.279054 0.248047,0.737941 v 0.217041 h -1.56063 q 0.01034,0.398943 0.200505,0.605649 0.192236,0.206706 0.539502,0.206706 0.36587,0 0.723472,-0.152962 v 0.305925 q -0.181902,0.07855 -0.345199,0.111621 -0.161231,0.03514 -0.390675,0.03514 z m -0.09302,-2.060859 q -0.272852,0 -0.436149,0.177767 -0.161231,0.177767 -0.19017,0.49196 h 1.184426 q 0,-0.324528 -0.144695,-0.496094 -0.144694,-0.173633 -0.413412,-0.173633 z m 2.544553,-0.287322 q 0.150895,0 0.270785,0.02481 l -0.04754,0.318327 q -0.14056,-0.03101 -0.248047,-0.03101 -0.274919,0 -0.47129,0.223243 -0.194303,0.223242 -0.194303,0.556039 v 1.215432 H 33.9206 v -2.265499 h 0.283187 l 0.03927,0.419614 h 0.01654 q 0.126091,-0.221176 0.303858,-0.341065 0.177768,-0.11989 0.390675,-0.11989 z m 1.728061,0 q 0.150896,0 0.270785,0.02481 l -0.04754,0.318327 q -0.14056,-0.03101 -0.248047,-0.03101 -0.274919,0 -0.47129,0.223243 -0.194304,0.223242 -0.194304,0.556039 v 1.215432 h -0.343132 v -2.265499 h 0.283188 l 0.03927,0.419614 h 0.01654 q 0.126091,-0.221176 0.303858,-0.341065 0.177767,-0.11989 0.390674,-0.11989 z m 0.334863,0.04134 h 0.367937 l 0.496095,1.291913 q 0.163297,0.442351 0.202572,0.638722 h 0.01654 q 0.02687,-0.10542 0.111621,-0.359669 0.08682,-0.256315 0.562241,-1.570966 h 0.367937 l -0.973586,2.579692 q -0.144694,0.382406 -0.338998,0.54157 -0.192236,0.16123 -0.473357,0.16123 -0.157096,0 -0.310059,-0.03514 v -0.274919 q 0.113689,0.02481 0.254249,0.02481 0.353467,0 0.504362,-0.396876 l 0.126091,-0.322461 z m 5.560394,0.124024 q 0,0.458887 -0.314193,0.706935 -0.312126,0.24598 -0.895037,0.24598 h -0.355535 v 1.18856 h -0.3514 V 78.29817 h 0.783416 q 1.132749,0 1.132749,0.880568 z m -1.564765,0.651124 h 0.31626 q 0.467156,0 0.675929,-0.150895 0.208773,-0.150896 0.208773,-0.483692 0,-0.299724 -0.19637,-0.446486 -0.196371,-0.146761 -0.61185,-0.146761 h -0.392742 z m 2.48874,1.490351 h -0.343132 v -2.265499 h 0.343132 z m -0.37207,-2.879416 q 0,-0.117822 0.05788,-0.171566 0.05788,-0.05581 0.144695,-0.05581 0.08268,0 0.142627,0.05581 0.05994,0.05581 0.05994,0.171566 0,0.115756 -0.05994,0.173634 -0.05995,0.05581 -0.142627,0.05581 -0.08682,0 -0.144695,-0.05581 -0.05788,-0.05788 -0.05788,-0.173634 z"
         id="path9" />
    </g>
    <g
       id="g17"
       transform="matrix(0.08845998,0,0,0.08845998,15.879865,91.920703)">
      <path
         d="M 74.19,0.005 C 72.42,0.06 70.514,0.713 68.352,2.42 63.057,0.377 57.922,-0.332 53.33,3.826 46.239,2.907 43.935,4.804 42.189,7.02 40.632,6.988 30.541,5.42 25.914,12.323 14.285,10.947 10.609,19.164 14.773,26.825 c -2.375,3.677 -4.836,7.309 0.718,14.319 -1.965,3.904 -0.747,8.139 3.882,13.265 -1.222,5.488 1.18,9.36 5.486,12.378 -0.806,7.51 6.887,11.876 9.184,13.433 0.882,4.376 2.72,8.505 11.507,10.789 1.449,6.521 6.73,7.648 11.844,9.017 -16.901,9.824 -31.396,22.75 -31.297,54.466 l -2.476,4.417 c -19.379,11.785 -36.815,49.664 -9.55,80.453 1.781,9.637 4.768,16.56 7.427,24.221 3.978,30.873 29.937,45.328 36.783,47.037 10.034,7.64 20.719,14.892 35.179,19.971 13.631,14.06 28.399,19.417 43.247,19.408 0.218,0 0.439,0.003 0.657,0 14.849,0.009 29.616,-5.349 43.248,-19.408 14.459,-5.079 25.146,-12.331 35.179,-19.974 6.847,-1.709 32.806,-16.164 36.783,-47.037 2.659,-7.661 5.646,-14.584 7.427,-24.221 27.265,-30.791 9.83,-68.672 -9.551,-80.458 l -2.479,-4.416 c 0.098,-31.713 -14.396,-44.64 -31.297,-54.466 5.113,-1.369 10.395,-2.495 11.843,-9.017 8.786,-2.284 10.626,-6.413 11.507,-10.789 2.297,-1.556 9.99,-5.922 9.185,-13.433 4.306,-3.018 6.708,-6.89 5.485,-12.378 4.629,-5.125 5.848,-9.36 3.883,-13.265 5.555,-7.006 3.09,-10.639 0.719,-14.316 4.161,-7.662 0.488,-15.878 -11.145,-14.502 C 243.524,5.416 233.436,6.984 231.876,7.016 230.13,4.801 227.827,2.903 220.737,3.822 216.144,-0.335 211.01,0.374 205.714,2.416 c -6.289,-4.962 -10.45,-0.984 -15.203,0.52 -7.614,-2.488 -9.355,0.92 -13.096,2.308 -8.304,-1.754 -10.827,2.065 -14.808,6.098 l -4.63,-0.092 c -12.524,7.381 -18.746,22.41 -20.952,30.135 -2.207,-7.727 -8.414,-22.756 -20.936,-30.135 l -4.63,0.092 C 107.473,7.31 104.95,3.49 96.646,5.244 92.907,3.858 91.17,0.45 83.552,2.938 80.432,1.951 77.563,-0.101 74.184,0.004 Z"
         id="path1-3" />
      <path
         fill="#bc1142"
         fill-rule="evenodd"
         d="m 177.65,253.658 v -0.391 c -0.119,-20.27 -18.029,-36.609 -40.01,-36.5 -21.979,0.101 -39.709,16.621 -39.59,36.891 v 0.39 c 0.11,20.271 18.03,36.61 40.01,36.5 21.981,-0.1 39.701,-16.62 39.59,-36.89 z m -62.83,-104.84 c -16.489,-10.811 -40.26,-3.83 -53.079,15.57 -12.83,19.41 -9.86,43.9 6.64,54.7 16.49,10.811 40.25,3.84 53.08,-15.57 12.82,-19.411 9.85,-43.9 -6.641,-54.7 z m 44.511,-1.961 c -16.49,10.811 -19.47,35.301 -6.64,54.702 12.819,19.41 36.59,26.379 53.08,15.58 16.489,-10.811 19.459,-35.301 6.64,-54.702 -12.83,-19.41 -36.591,-26.379 -53.08,-15.58 z M 32.392,166.478 c -29.54,16.87 -24.41,54.411 -8.471,67.23 14.49,6.431 26.28,-72 8.471,-67.23 z m 205.769,-0.98 c -17.81,-4.77 -6.011,73.67 8.47,67.231 15.939,-12.811 21.07,-50.361 -8.47,-67.231 z m -60.5,-58.4 c -11.32,1.9 54.25,59.16 55.26,46.38 1.04,-33.32 -24.53,-51.57 -55.26,-46.38 z m -84.9,-0.98 c -30.729,-5.19 -56.289,13.069 -55.26,46.39 1.01,12.769 66.58,-44.49 55.26,-46.39 z m 44.139,-7.77 c -18.34,-0.48 -35.939,13.61 -35.979,21.78 -0.05,9.931 14.5,20.101 36.11,20.351 22.06,0.16 36.14,-8.131 36.21,-18.381 0.079,-11.61 -20.07,-23.931 -36.341,-23.75 z m 1.121,203.6 c -15.891,-0.39 -40.261,6.37 -39.961,15.03 -0.25,5.91 19.131,22.959 38.9,22.109 19.09,0.33 38.811,-16.699 38.55,-24.23 -0.039,-7.759 -21.499,-13.599 -37.489,-12.909 z m -59.06,-45.969 c -13.061,-15.16 -30.029,-24.201 -41.02,-17.51 -7.351,5.59 -8.69,24.619 1.77,43.319 15.51,22.29 37.34,24.521 46.33,19.101 9.5,-7.101 4.311,-31.201 -7.08,-44.91 z m 115.84,-4.361 c -12.32,14.43 -19.17,40.75 -10.189,49.22 8.59,6.59 31.649,5.67 48.689,-17.97 12.37,-15.88 8.221,-42.39 1.16,-49.431 -10.5,-8.119 -25.561,2.271 -39.66,18.181 z"
         clip-rule="evenodd"
         id="path2-1" />
      <path
         fill="#75a928"
         fill-rule="evenodd"
         d="m 49.247,32.48 c 25.851,8.78 49.17,20.491 68.71,36.6 22.939,-10.85 7.12,-38.21 -4.07,-49.07 -0.57,2.87 -1.209,4.68 -1.949,5.22 -3.641,-3.97 -6.621,-8.03 -11.311,-11.85 -0.02,2.24 1.11,4.68 -1.68,6.46 -2.52,-3.44 -5.92,-6.51 -10.44,-9.11 2.181,3.81 0.38,4.96 -0.79,6.54 -3.449,-3 -6.729,-6.04 -13.09,-8.4 1.74,2.15 4.17,4.25 1.59,6.72 -3.55,-2.25 -7.119,-4.5 -15.56,-6.1 1.899,2.15 5.84,4.3 3.45,6.46 -4.461,-1.73 -9.391,-2.99 -14.851,-3.72 2.61,2.19 4.79,4.32 2.65,6.01 -4.771,-1.49 -11.34,-3.49 -17.77,-1.76 l 4.07,4.15 c 0.45,0.56 -9.52,0.43 -16.09,0.53 2.4,3.39 4.84,6.65 6.27,12.47 -0.65,0.67 -3.91,0.29 -6.98,0 3.15,6.73 8.62,8.43 9.9,11.31 -1.93,1.48 -4.6,1.1 -7.52,0.09 2.27,4.75 7.03,8 10.79,11.85 -0.95,0.681 -2.61,1.091 -6.54,0.62 3.47,3.74 7.67,7.17 12.64,10.25 -0.88,1.04 -3.91,0.99 -6.72,1.061 4.51,4.479 10.3,6.799 15.74,9.729 -2.71,1.88 -4.65,1.44 -6.72,1.41 3.839,3.21 10.38,4.88 16.44,6.81 -1.149,1.82 -2.3,2.32 -4.771,2.83 6.42,3.61 15.621,1.96 18.211,3.801 -0.62,1.81 -2.391,2.989 -4.51,3.979 10.34,0.61 38.609,-0.38 44.029,-22.101 C 101.796,63.46 82.476,49.61 49.247,32.48 Z m 176.309,0 c -33.219,17.13 -52.539,30.98 -63.119,42.79 5.42,21.721 33.689,22.711 44.029,22.101 -2.119,-0.99 -3.889,-2.17 -4.51,-3.979 2.59,-1.841 11.791,-0.19 18.211,-3.801 -2.471,-0.51 -3.621,-1.01 -4.771,-2.83 6.061,-1.93 12.602,-3.6 16.441,-6.81 -2.07,0.03 -4.01,0.47 -6.721,-1.41 5.439,-2.931 11.23,-5.25 15.74,-9.729 -2.811,-0.07 -5.84,-0.021 -6.721,-1.061 4.971,-3.08 9.17,-6.51 12.641,-10.25 -3.93,0.471 -5.59,0.061 -6.539,-0.62 3.76,-3.851 8.52,-7.1 10.789,-11.85 -2.92,1.01 -5.59,1.39 -7.52,-0.09 1.279,-2.88 6.75,-4.58 9.9,-11.31 -3.07,0.29 -6.33,0.67 -6.98,0 1.43,-5.82 3.879,-9.09 6.279,-12.47 -6.58,-0.1 -16.549,0.03 -16.1,-0.53 l 4.07,-4.16 c -6.42,-1.73 -13,0.28 -17.77,1.77 -2.141,-1.69 0.039,-3.83 2.648,-6.01 -5.459,0.73 -10.389,1.98 -14.85,3.71 -2.379,-2.15 1.551,-4.3 3.451,-6.45 -8.441,1.6 -12.012,3.85 -15.561,6.1 -2.58,-2.47 -0.15,-4.57 1.59,-6.72 -6.359,2.36 -9.641,5.4 -13.09,8.4 -1.17,-1.58 -2.971,-2.74 -0.791,-6.54 -4.52,2.6 -7.92,5.67 -10.43,9.1 -2.799,-1.78 -1.67,-4.21 -1.68,-6.45 -4.699,3.82 -7.68,7.88 -11.32,11.85 -0.73,-0.54 -1.379,-2.35 -1.949,-5.22 -11.189,10.86 -27.01,38.221 -4.061,49.07 19.524,-16.11 42.844,-27.821 68.694,-36.601 z"
         clip-rule="evenodd"
         id="path3-9" />
    </g>
  </g>
</svg>
